<svg width="12" height="9" viewBox="0 0 12 9" fill="none" xmlns="http://www.w3.org/2000/svg">
<path d="M5.22149 8.58978L0.258056 1.99466C-0.327703 1.21869 0.148355 4.42369e-07 1.03734 4.42369e-07H10.9642C11.1632 -0.000197853 11.3579 0.0662735 11.5252 0.191455C11.6925 0.316636 11.8252 0.49522 11.9075 0.705822C11.9897 0.916423 12.018 1.15011 11.9889 1.37891C11.9598 1.60771 11.8746 1.82191 11.7435 1.99586L6.78006 8.58858C6.68292 8.7178 6.56313 8.82137 6.42872 8.89233C6.29431 8.96329 6.14839 9 6.00077 9C5.85315 9 5.70724 8.96329 5.57283 8.89233C5.43842 8.82137 5.31862 8.7178 5.22149 8.58858V8.58978Z" fill="black"/>
</svg>
