<svg width="48" height="51" viewBox="0 0 48 51" fill="none" xmlns="http://www.w3.org/2000/svg">
<g filter="url(#filter0_d_63_11659)">
<path d="M4.27588 5.35444C4.27588 4.15044 4.72118 2.99576 5.51382 2.1444C6.30646 1.29305 7.38152 0.814758 8.50248 0.814758H16.9557C18.0766 0.814758 19.1517 1.29305 19.9443 2.1444C20.737 2.99576 21.1823 4.15044 21.1823 5.35444V14.4338C21.1823 15.6378 20.737 16.7925 19.9443 17.6438C19.1517 18.4952 18.0766 18.9735 16.9557 18.9735H8.50248C7.38152 18.9735 6.30646 18.4952 5.51382 17.6438C4.72118 16.7925 4.27588 15.6378 4.27588 14.4338V5.35444ZM26.8178 5.35444C26.8178 4.15044 27.2631 2.99576 28.0557 2.1444C28.8483 1.29305 29.9234 0.814758 31.0444 0.814758H39.4976C40.6185 0.814758 41.6936 1.29305 42.4862 2.1444C43.2789 2.99576 43.7242 4.15044 43.7242 5.35444V14.4338C43.7242 15.6378 43.2789 16.7925 42.4862 17.6438C41.6936 18.4952 40.6185 18.9735 39.4976 18.9735H31.0444C29.9234 18.9735 28.8483 18.4952 28.0557 17.6438C27.2631 16.7925 26.8178 15.6378 26.8178 14.4338V5.35444ZM4.27588 29.5661C4.27588 28.3621 4.72118 27.2074 5.51382 26.356C6.30646 25.5047 7.38152 25.0264 8.50248 25.0264H16.9557C18.0766 25.0264 19.1517 25.5047 19.9443 26.356C20.737 27.2074 21.1823 28.3621 21.1823 29.5661V38.6454C21.1823 39.8494 20.737 41.0041 19.9443 41.8555C19.1517 42.7068 18.0766 43.1851 16.9557 43.1851H8.50248C7.38152 43.1851 6.30646 42.7068 5.51382 41.8555C4.72118 41.0041 4.27588 39.8494 4.27588 38.6454V29.5661ZM26.8178 29.5661C26.8178 28.3621 27.2631 27.2074 28.0557 26.356C28.8483 25.5047 29.9234 25.0264 31.0444 25.0264H39.4976C40.6185 25.0264 41.6936 25.5047 42.4862 26.356C43.2789 27.2074 43.7242 28.3621 43.7242 29.5661V38.6454C43.7242 39.8494 43.2789 41.0041 42.4862 41.8555C41.6936 42.7068 40.6185 43.1851 39.4976 43.1851H31.0444C29.9234 43.1851 28.8483 42.7068 28.0557 41.8555C27.2631 41.0041 26.8178 39.8494 26.8178 38.6454V29.5661Z" fill="black"/>
</g>
<defs>
<filter id="filter0_d_63_11659" x="0.275879" y="0.814758" width="47.4483" height="50.3704" filterUnits="userSpaceOnUse" color-interpolation-filters="sRGB">
<feFlood flood-opacity="0" result="BackgroundImageFix"/>
<feColorMatrix in="SourceAlpha" type="matrix" values="0 0 0 0 0 0 0 0 0 0 0 0 0 0 0 0 0 0 127 0" result="hardAlpha"/>
<feOffset dy="4"/>
<feGaussianBlur stdDeviation="2"/>
<feComposite in2="hardAlpha" operator="out"/>
<feColorMatrix type="matrix" values="0 0 0 0 0 0 0 0 0 0 0 0 0 0 0 0 0 0 0.25 0"/>
<feBlend mode="normal" in2="BackgroundImageFix" result="effect1_dropShadow_63_11659"/>
<feBlend mode="normal" in="SourceGraphic" in2="effect1_dropShadow_63_11659" result="shape"/>
</filter>
</defs>
</svg>
