<svg width="12" height="9" viewBox="0 0 12 9" fill="none" xmlns="http://www.w3.org/2000/svg">
<path d="M5.22149 0.410216L0.258056 7.00414C-0.327704 7.78251 0.148355 9 1.03734 9H10.9642C11.1632 9.0002 11.3579 8.93373 11.5252 8.80855C11.6925 8.68336 11.8252 8.50478 11.9075 8.29418C11.9897 8.08358 12.018 7.84988 11.9889 7.62109C11.9598 7.39229 11.8746 7.17809 11.7435 7.00414L6.78006 0.411419C6.68292 0.2822 6.56313 0.178633 6.42872 0.107673C6.29431 0.0367125 6.14839 0 6.00077 0C5.85315 0 5.70724 0.0367125 5.57283 0.107673C5.43842 0.178633 5.31862 0.2822 5.22149 0.411419V0.410216Z" fill="black"/>
</svg>
