<svg width="1600" height="960" viewBox="0 0 1600 960" fill="none" xmlns="http://www.w3.org/2000/svg">
<g clip-path="url(#clip0_60_8498)">
<rect width="1600" height="960" fill="#FAFAFA"/>
<path d="M20.6245 632.341C20.6245 632.341 41.6245 756.341 193.125 738.841C236.225 733.841 354.125 730.841 398.125 719.841C442.125 708.841 531.125 676.841 557.125 678.841C583.125 680.841 594.125 657.841 594.125 657.841L367.125 526.841L20.6245 632.341Z" fill="black" fill-opacity="0.04"/>
<path d="M491.625 354.341C491.625 354.341 488.625 324.341 513.625 315.341C538.625 306.341 665.248 308.226 712.248 249.226C759.248 190.226 768.725 139.041 831.625 66.3412C971.625 -95.6588 1337.62 -87.6588 1416.62 -90.6588C1416.62 -90.6588 1221.02 -135.059 1179.62 -139.659C1059.02 -153.059 993.525 -155.259 884.625 -82.6588C836.325 -50.4588 751.525 42.7412 737.625 46.3412C705.025 54.9412 692.825 133.841 670.825 164.741C618.625 238.341 648.625 140.341 612.625 168.341C589.225 186.541 588.025 252.741 561.625 262.341C544.225 268.641 529.125 250.941 520.625 261.341C471.625 321.341 468.625 333.341 468.625 333.341L468.725 338.441V346.941C471.925 355.041 474.625 361.341 474.625 361.341L491.625 354.341Z" fill="url(#paint0_linear_60_8498)"/>
<path opacity="0.3" d="M491.625 354.341C491.625 354.341 488.625 324.341 513.625 315.341C538.625 306.341 662.625 306.341 709.625 247.341C756.625 188.341 741.625 81.3412 827.625 38.3412C893.225 5.54119 965.625 -70.8588 1030.62 -106.659L1049.62 -87.6588C1049.62 -87.6588 782.625 4.34119 732.625 74.3412C682.625 144.341 629.625 245.341 546.625 275.341C463.625 305.341 468.625 333.341 468.625 333.341L468.725 338.441V346.941C471.925 355.041 474.625 361.341 474.625 361.341L491.625 354.341Z" fill="url(#paint1_linear_60_8498)"/>
<path d="M1728.62 1061.34L1634.62 -99.6588L1106.92 -81.6588C1050.62 -99.3588 904.225 -120.059 815.625 55.3412C772.225 141.141 756.625 188.341 709.625 247.341C662.625 306.341 538.625 306.341 513.625 315.341C488.625 324.341 491.625 354.341 491.625 354.341L474.625 361.341C474.625 361.341 471.825 355.041 468.725 346.941L467.625 702.341C467.625 702.341 497.925 712.241 540.325 728.041C563.025 736.441 606.825 786.141 633.625 797.341C658.825 807.941 667.125 779.841 691.225 791.841C726.325 809.241 738.825 848.541 759.625 866.341C782.425 885.841 817.925 887.541 829.825 911.641C842.825 938.141 850.125 966.341 853.725 993.641C857.125 1019.24 861.825 1053.14 866.625 1087.74C886.225 1228.24 921.025 1354.24 1047.62 1418.34C1296.62 1544.34 1589.92 1464.24 1707.62 1328.34C1722.12 1311.54 1728.62 1061.34 1728.62 1061.34Z" fill="url(#paint2_linear_60_8498)"/>
<path d="M198.624 697.341C198.624 697.341 224.624 696.341 225.624 704.341C226.624 712.341 223.624 716.341 216.624 716.341C209.624 716.341 197.624 724.341 180.624 723.341C163.624 722.341 141.624 714.341 124.624 713.341C107.624 712.341 71.9245 712.641 71.9245 712.641C71.9245 712.641 42.6245 685.641 40.6245 679.941C38.6245 674.241 81.6245 674.241 97.6245 680.241C113.624 686.241 113.624 696.241 131.624 690.241C149.624 684.241 160.924 679.941 177.324 686.541C193.624 693.341 198.624 697.341 198.624 697.341Z" fill="black" fill-opacity="0.04"/>
<path d="M20.6245 635.341C16.3245 631.741 -8.37549 493.341 36.6245 464.341C65.7245 445.541 31.7245 396.641 65.6245 392.341C90.8245 389.141 60.8245 379.241 82.6245 347.541C104.425 315.841 100.925 326.141 111.825 323.041C122.725 319.941 135.625 326.141 146.425 326.141C157.225 326.141 164.725 322.041 175.625 307.741C186.525 293.441 198.725 274.041 219.125 302.641C227.125 313.941 217.725 330.241 231.325 334.341C244.925 338.441 267.325 354.741 275.525 367.041C283.725 379.341 292.525 395.641 299.325 397.641C306.125 399.641 336.025 386.441 340.125 375.141C344.225 363.841 352.325 352.641 360.525 350.641C368.725 348.641 390.425 337.341 396.525 330.241C402.625 323.141 402.625 314.941 414.225 321.041C425.725 327.141 414.925 349.641 438.025 335.341C461.125 321.041 457.925 383.241 464.725 390.341C471.525 397.441 496.425 364.941 506.625 366.941C516.825 368.941 521.525 361.841 533.125 368.941C544.625 376.041 554.825 399.541 571.125 400.641C587.425 401.641 558.225 391.441 566.325 402.641C574.525 413.841 568.325 440.441 568.325 440.441L577.625 665.341L88.6245 648.341C58.4245 647.741 20.6245 635.341 20.6245 635.341Z" fill="#E2F6FF"/>
<path d="M236.425 399.141C234.425 411.141 226.425 419.141 232.425 423.141C238.425 427.141 240.425 421.141 242.425 417.141C244.425 413.141 252.425 409.141 254.425 409.141C256.425 409.141 260.425 409.141 258.425 403.141C256.425 397.141 254.425 389.141 256.425 385.141C258.425 381.141 270.425 357.141 288.525 381.141C288.525 381.141 288.525 395.141 282.525 405.141C276.525 415.141 294.525 417.141 296.525 421.141C298.525 425.141 300.525 437.141 300.525 437.141C300.525 437.141 316.525 425.141 322.625 423.141C328.625 421.141 328.625 407.141 326.625 405.141C324.625 403.141 320.625 399.141 322.625 395.141C324.625 391.141 330.625 375.141 338.625 377.141C346.625 379.141 354.625 391.141 354.625 395.141C354.625 399.141 358.625 403.141 356.625 407.141C354.625 411.141 350.625 417.141 350.625 417.141C350.625 417.141 362.625 415.141 364.625 403.141C366.625 391.141 364.625 387.141 362.625 383.141C360.625 379.141 358.625 381.141 362.625 375.141C366.625 369.141 372.625 355.141 382.725 361.141C392.825 367.141 390.725 381.141 390.725 381.141C390.725 381.141 388.725 391.141 388.725 397.141C388.725 403.141 392.725 407.141 402.725 411.141C412.725 415.141 416.725 415.141 416.725 415.141C416.725 415.141 424.725 411.141 426.725 409.141C428.725 407.141 432.725 397.141 428.725 395.141C424.725 393.141 420.725 391.141 422.725 389.141C424.725 387.141 424.725 393.141 424.725 387.141C424.725 381.141 428.725 365.141 434.725 365.141C440.725 365.141 452.725 373.141 448.725 385.141C448.725 385.141 452.725 391.141 450.725 393.141C448.725 395.141 446.725 399.141 448.725 407.141C450.725 415.141 468.825 417.141 468.825 417.141C468.825 417.141 488.924 399.141 498.924 405.141C508.924 411.141 529.025 411.141 533.025 409.141C537.025 407.141 549.025 409.141 551.025 399.141C553.025 389.141 543.025 387.141 545.025 381.141C547.025 375.141 541.025 365.141 549.025 363.141C557.025 361.141 565.025 359.141 571.125 365.141C577.125 371.141 573.125 377.141 571.125 383.141C569.125 389.141 561.125 387.141 567.125 393.141C573.125 399.141 573.125 401.141 581.125 405.141C589.125 409.141 564.424 413.341 566.424 415.341C568.424 417.341 532.424 413.341 540.424 449.341C548.424 485.341 520.424 504.341 520.424 504.341C520.424 504.341 506.424 510.341 504.424 512.341C502.424 514.341 562.424 501.341 562.424 503.341C562.424 505.341 543.424 506.341 539.424 510.341C535.424 514.341 534.424 515.341 540.424 535.341C546.424 555.341 530.424 600.341 530.424 606.341C530.424 612.341 548.424 624.341 552.424 632.341C556.424 640.341 558.424 638.341 558.424 638.341L587.125 657.341C587.125 657.341 589.125 665.341 585.125 667.341C581.125 669.341 579.125 677.341 573.125 669.341C567.125 661.341 565.125 655.341 561.125 659.341C557.125 663.341 523.025 661.341 523.025 661.341L298.225 677.941C292.253 678.393 286.251 677.645 280.573 675.741C274.895 673.837 269.655 670.815 265.163 666.855C260.671 662.894 257.017 658.074 254.417 652.679C251.817 647.284 250.324 641.423 250.025 635.441C246.225 553.241 237.925 390.141 236.425 399.141Z" fill="#D2C1FF"/>
<path d="M315.625 392.241C315.625 392.241 312.725 379.041 302.425 382.741C292.125 386.441 285.525 395.241 287.725 399.641C289.925 404.041 295.125 410.641 295.125 410.641L315.625 392.241Z" fill="#B297FF"/>
<path d="M241.124 462.841L233.224 512.641C233.224 512.641 241.124 515.641 244.124 522.741C247.124 529.841 246.024 531.641 246.024 531.641C246.024 531.641 244.924 533.441 241.524 531.041C238.124 528.641 236.824 522.741 236.824 522.741C236.824 522.741 235.124 517.541 234.424 518.541C234.124 519.041 236.424 523.241 235.724 524.441C235.124 525.541 233.824 523.441 232.824 521.541C232.031 520.09 231.057 518.746 229.924 517.541C228.874 516.469 228.087 515.169 227.624 513.741C227.024 510.741 231.524 458.541 231.524 458.541L241.824 463.241L241.124 462.841Z" fill="#B297FF"/>
<path d="M230.225 409.541C230.225 409.541 209.225 387.341 218.925 376.641C228.625 365.941 234.725 365.041 238.325 368.941C241.825 372.841 241.825 375.741 241.825 375.741C241.825 375.741 234.825 373.841 232.125 377.641C229.425 381.441 226.825 386.341 226.825 388.241C226.925 390.141 231.825 404.641 230.225 409.541Z" fill="#B297FF"/>
<path d="M214.725 650.441L212.625 658.941C212.625 658.941 218.925 662.841 222.425 660.441V653.541L214.725 650.441Z" fill="#B297FF"/>
<path d="M221.025 521.741C221.025 521.741 224.525 555.241 223.825 562.841C223.125 570.441 215.425 606.941 214.725 612.241C214.025 617.541 209.125 643.141 211.925 650.241C214.225 655.941 221.925 655.041 224.825 654.541C225.168 654.467 225.483 654.296 225.731 654.048C225.979 653.799 226.151 653.485 226.225 653.141C228.425 643.541 243.725 578.341 247.025 573.441C250.525 568.141 233.725 530.041 233.725 530.041L221.025 521.741Z" fill="#B297FF"/>
<path d="M244.724 421.641C243.924 420.241 243.024 418.441 242.324 416.841C240.724 413.441 240.724 411.641 239.924 408.241C239.808 407.614 239.742 406.979 239.724 406.341C239.724 406.341 236.624 399.641 233.424 400.541C231.624 401.041 229.224 399.541 227.524 398.241C227.635 398.424 227.704 398.629 227.724 398.841C228.324 400.741 228.024 404.141 227.824 405.741C227.789 405.99 227.807 406.242 227.876 406.484C227.945 406.725 228.064 406.949 228.224 407.141C228.824 408.041 229.724 410.141 228.524 414.341C227.624 417.741 226.424 418.941 225.624 419.341C225.283 419.498 224.996 419.753 224.8 420.073C224.604 420.394 224.508 420.766 224.524 421.141V422.641C224.514 422.898 224.555 423.155 224.646 423.395C224.737 423.636 224.875 423.856 225.052 424.043C225.229 424.229 225.442 424.378 225.677 424.481C225.913 424.584 226.167 424.638 226.424 424.641H243.024C243.367 424.622 243.699 424.517 243.991 424.335C244.282 424.154 244.523 423.903 244.692 423.605C244.862 423.306 244.953 422.97 244.959 422.627C244.964 422.284 244.884 421.945 244.724 421.641Z" fill="#B297FF"/>
<path d="M235.024 404.541C235.912 404.279 236.86 404.313 237.726 404.638C238.592 404.963 239.328 405.561 239.824 406.341C240.02 404.018 240.63 401.749 241.624 399.641C241.624 399.641 242.424 397.041 244.024 396.241C241.383 396.764 238.666 396.764 236.024 396.241C233.424 395.708 230.749 395.641 228.124 396.041L226.524 396.141C227.018 396.747 227.422 397.421 227.724 398.141C229.324 399.541 233.124 405.041 235.024 404.541Z" fill="#B297FF"/>
<path d="M211.924 657.341C211.924 657.341 221.024 661.241 223.824 659.641L237.124 668.141C237.124 668.141 239.224 671.241 237.124 672.041C235.024 672.841 216.724 668.941 212.524 668.141C212.624 668.141 205.624 668.941 211.924 657.341Z" fill="#B297FF"/>
<path d="M239.024 369.041C239.024 369.041 247.025 393.841 245.025 400.241C243.025 406.741 225.924 395.941 225.924 395.941L223.924 369.041H239.024Z" fill="#B297FF"/>
<path d="M228.824 407.741C228.824 407.741 204.924 382.941 215.924 371.141C226.924 359.341 234.024 358.241 238.024 362.541C242.024 366.841 242.024 370.041 242.024 370.041C242.024 370.041 234.024 367.841 230.924 372.241C227.924 376.541 225.924 381.941 225.924 384.041C225.924 386.141 230.624 402.341 228.824 407.741Z" fill="#B297FF"/>
<path d="M257.224 477.341L240.624 463.041C240.624 463.041 240.724 501.941 239.024 506.641C237.224 511.341 226.924 509.341 226.224 508.141C221.224 499.741 221.424 447.641 224.424 440.041C227.424 432.441 248.524 458.441 248.524 458.441L257.224 477.341Z" fill="#B297FF"/>
<path d="M215.624 607.441L214.824 611.541L236.124 612.141L237.824 605.141L215.624 607.441Z" fill="#B297FF"/>
<path d="M244.324 606.041L244.524 612.441L266.524 612.141L266.724 605.141L244.324 606.041Z" fill="#B297FF"/>
<path d="M217.124 512.341C217.124 512.341 215.824 520.341 257.724 516.741C257.724 516.741 256.824 506.141 256.824 503.241C256.824 500.341 220.724 507.141 220.724 507.141L217.124 512.341Z" fill="#B297FF"/>
<path d="M224.224 441.441C224.224 441.441 235.624 464.641 255.924 477.241V469.541L229.524 441.541L224.624 438.641L224.224 441.441Z" fill="#B297FF"/>
<path d="M249.824 655.841V663.541C251.128 664.196 252.566 664.537 254.024 664.537C255.483 664.537 256.921 664.196 258.224 663.541V654.341L249.824 655.841Z" fill="#B297FF"/>
<path d="M250.924 503.341C252.556 504.034 253.973 505.15 255.028 506.574C256.083 507.998 256.737 509.679 256.924 511.441C258.824 526.641 263.824 566.741 266.024 574.141C268.324 581.541 266.024 630.341 265.024 649.241C264.724 654.141 261.324 658.141 256.924 658.541C256.624 658.541 256.224 658.641 255.924 658.641C251.024 658.941 246.924 654.841 246.524 649.541C245.524 636.141 243.524 606.741 244.824 588.841C244.951 587.274 244.712 585.699 244.124 584.241C241.124 576.541 231.024 551.241 222.424 540.941C221.486 539.799 220.804 538.469 220.424 537.041C219.024 531.741 216.024 518.641 217.624 505.641C219.124 492.641 240.724 499.341 250.924 503.341Z" fill="#B297FF"/>
<path d="M248.424 661.941C248.424 661.941 254.024 665.041 258.924 661.941C258.924 661.941 273.624 665.041 275.024 666.541C276.424 668.041 276.424 669.641 275.724 670.441C275.024 671.241 267.324 671.241 262.424 671.941C257.524 672.741 249.824 671.941 249.824 671.941C249.824 671.941 244.224 672.041 248.424 661.941Z" fill="#B297FF"/>
<path d="M229.724 417.441C233.396 418.111 237.102 418.578 240.824 418.841C241.996 418.931 243.122 419.33 244.088 419.997C245.055 420.665 245.826 421.577 246.324 422.641C249.424 429.141 254.924 441.341 255.524 446.941C256.124 454.041 256.224 494.541 258.424 503.841C258.828 505.4 258.723 507.047 258.124 508.541C257.981 508.821 257.813 509.089 257.624 509.341C257.024 510.041 236.624 519.041 220.824 514.341C219.44 513.872 218.235 512.986 217.376 511.804C216.516 510.622 216.044 509.203 216.024 507.741C215.524 496.341 214.324 467.541 214.824 460.841C215.233 453.647 215.233 446.435 214.824 439.241C214.808 438.639 214.841 438.037 214.924 437.441C216.302 430.688 219.481 424.434 224.124 419.341C224.813 418.566 225.691 417.983 226.673 417.65C227.655 417.317 228.706 417.245 229.724 417.441V417.441Z" fill="#B297FF"/>
<path d="M74.9246 666.441L70.7246 670.741C70.7246 670.741 79.2246 679.241 83.2246 678.041L88.9246 671.841L74.9246 666.441Z" fill="#F2F1F2"/>
<path d="M182.825 688.841L185.125 693.341C185.125 693.341 194.725 686.041 196.425 683.141L191.925 678.041L183.425 688.241L182.825 688.841Z" fill="white"/>
<path d="M121.725 540.241C121.725 540.241 113.225 585.441 112.125 591.041C111.025 596.641 74.2246 659.941 73.0246 661.141C71.8246 662.341 80.9246 679.241 91.1246 673.041C101.325 666.841 129.025 608.041 133.025 605.241C137.025 602.441 143.825 563.441 143.825 563.441L121.725 540.241Z" fill="#83ACD8"/>
<path d="M148.125 405.341L130.825 393.741C130.925 400.941 127.925 411.441 127.925 411.441C135.625 410.041 135.625 420.541 145.425 422.841C149.925 423.841 149.725 421.341 151.425 420.641L151.025 420.341C149.103 418.871 147.531 416.993 146.425 414.841C145.725 413.441 145.225 412.041 145.825 410.541L148.125 405.341Z" fill="#E0C0AA"/>
<path d="M127.325 397.341C127.325 397.341 128.325 399.441 129.825 399.441C131.425 399.441 133.125 404.041 136.025 405.941C136.777 406.495 137.64 406.879 138.555 407.069C139.469 407.259 140.414 407.249 141.325 407.041L147.725 406.141L150.025 387.741L129.425 396.941L127.325 397.341Z" fill="#ECC9B1"/>
<path d="M195.825 678.141C195.825 678.141 172.625 612.641 173.225 605.841C173.625 600.641 164.225 561.941 159.725 543.841C158.26 538.025 157.587 532.038 157.725 526.041C157.925 518.141 155.025 504.941 153.425 499.041C151.125 490.841 127.825 502.241 119.025 502.841L138.225 515.441C138.225 515.441 126.325 515.441 126.325 521.041C126.325 526.641 129.725 539.641 135.425 548.141C141.125 556.641 144.525 558.841 145.025 567.941C145.625 576.941 147.325 601.841 149.525 608.641C151.825 615.441 156.925 630.141 160.325 637.441C163.725 644.741 175.025 665.141 177.325 671.941C179.625 678.741 182.425 683.841 185.225 686.041C188.025 688.241 186.925 687.741 186.925 687.741L187.225 687.841C190.367 684.864 193.245 681.618 195.825 678.141V678.141Z" fill="#A6C7E2"/>
<path d="M185.125 686.041C182.325 683.741 183.425 675.841 181.125 669.141C178.825 662.341 166.425 640.941 163.025 633.541C159.625 626.241 161.925 609.841 159.625 603.041C157.325 596.241 151.125 574.841 150.525 565.741C149.925 556.741 144.325 553.341 138.625 544.841C132.925 536.341 142.025 529.541 142.025 523.941C142.032 522.316 141.676 520.71 140.984 519.24C140.292 517.769 139.281 516.472 138.025 515.441L118.825 502.841C117.325 502.941 116.425 503.041 116.425 503.041L115.825 503.641C115.825 503.641 107.325 527.341 122.025 544.841C136.725 562.341 129.925 562.941 144.625 590.041C144.625 590.041 147.425 603.041 148.625 615.441C149.725 627.841 175.825 687.741 178.625 690.541C180.225 692.141 183.225 690.941 186.825 687.841L186.525 687.741C186.825 687.741 187.925 688.341 185.125 686.041Z" fill="#A6C7E2"/>
<path d="M185.125 686.041C182.325 683.741 183.425 675.841 181.125 669.141C178.825 662.341 166.425 640.941 163.025 633.541C159.625 626.241 161.925 609.841 159.625 603.041C157.325 596.241 151.125 574.841 150.525 565.741C149.925 556.741 144.325 553.341 138.625 544.841C132.925 536.341 142.025 529.541 142.025 523.941C142.032 522.316 141.676 520.71 140.984 519.24C140.292 517.769 139.281 516.472 138.025 515.441L118.825 502.841C117.325 502.941 116.425 503.041 116.425 503.041L115.825 503.641C115.825 503.641 107.325 527.341 122.025 544.841C136.725 562.341 129.925 562.941 144.625 590.041C144.625 590.041 147.425 603.041 148.625 615.441C149.725 627.841 175.825 687.741 178.625 690.541C180.225 692.141 183.225 690.941 186.825 687.841L186.525 687.741C186.825 687.741 187.925 688.341 185.125 686.041Z" fill="#A6C7E2"/>
<path d="M151.924 464.441L168.124 454.941L162.424 425.641C159.615 421.913 156.119 418.756 152.124 416.341C145.624 412.441 136.024 407.441 131.624 409.341L129.724 412.041L128.024 412.641H126.924L116.724 417.741C116.724 417.741 133.724 454.441 136.524 462.341C139.324 470.241 130.324 478.141 132.024 482.141C133.724 486.141 124.624 486.641 122.424 494.541C120.124 502.441 133.224 513.141 138.524 515.741L135.524 516.141C147.124 515.741 155.324 513.141 158.124 509.741C168.324 497.341 158.424 448.241 156.424 443.641C148.024 424.541 151.924 464.441 151.924 464.441Z" fill="#2EB5DA"/>
<path d="M139.325 494.541C141.625 486.641 133.625 486.041 131.925 482.141C130.225 478.141 139.325 470.241 136.425 462.341C133.625 454.441 118.925 420.541 118.925 420.541L131.925 413.541L132.525 413.241L133.125 412.641L131.625 409.341C131.148 409.523 130.733 409.835 130.425 410.241L113.325 418.841C113.325 418.841 119.025 466.841 115.025 483.841C111.025 500.741 112.225 504.141 121.225 512.641C124.225 515.441 129.625 516.441 135.425 516.241L138.425 515.841C133.025 513.141 137.025 502.441 139.325 494.541Z" fill="#2EB5DA"/>
<path d="M139.325 494.541C141.625 486.641 134.825 466.341 133.125 462.341C131.425 458.341 139.325 470.241 136.525 462.341C133.725 454.441 119.025 420.541 119.025 420.541L132.025 413.541L132.625 413.241L133.225 412.641L131.625 409.341C131.148 409.523 130.733 409.835 130.425 410.241L113.325 418.841C113.325 418.841 119.025 466.841 115.025 483.841C111.025 500.741 112.225 504.141 121.225 512.641C124.225 515.441 129.625 516.441 135.425 516.241L138.425 515.841C133.025 513.141 137.025 502.441 139.325 494.541Z" fill="#2EB5DA"/>
<path d="M56.1246 682.641L55.0246 682.041C55.0246 682.041 55.6246 686.041 55.0246 686.541L54.4246 687.141C54.4246 687.141 64.6246 688.241 66.9246 689.941L69.2246 691.641L70.9246 689.341C70.9246 689.341 78.8246 692.141 80.0246 694.441C81.1246 696.741 95.8246 702.341 110.625 699.541C110.625 699.541 112.325 699.541 112.325 696.141C112.125 692.841 56.1246 682.641 56.1246 682.641Z" fill="#8FC5DB"/>
<path d="M69.1245 668.541C69.1245 668.541 80.4245 679.241 87.2245 678.141C88.7306 680.704 90.4358 683.145 92.3245 685.441C95.1245 688.841 108.125 689.441 111.525 692.741C114.925 696.141 111.525 698.341 109.825 698.341C108.125 698.341 90.6245 699.441 81.5245 693.241C72.4245 687.041 56.0245 682.541 56.0245 682.541C56.0245 682.541 57.8245 667.941 69.1245 668.541Z" fill="#6FB4DB"/>
<path d="M128.525 406.941C128.525 406.941 146.025 411.441 146.625 410.941L148.025 414.141C148.025 414.141 143.125 416.241 127.025 411.841L128.525 406.941Z" fill="#79A9D8"/>
<path d="M109.325 428.941C108.725 436.841 115.525 442.541 116.725 447.541C117.825 452.641 121.125 465.041 125.225 467.341C129.325 469.641 128.625 468.441 128.625 468.441L133.425 467.241C136.547 465.545 139.466 463.499 142.125 461.141C142.125 461.141 130.925 426.741 118.125 419.941C118.325 420.141 114.925 419.741 115.025 419.941C114.925 419.941 109.825 421.041 109.325 428.941Z" fill="#2EB5DA"/>
<path d="M113.225 418.841C113.225 418.841 108.125 420.541 106.425 429.041C104.725 437.541 121.725 470.241 121.725 470.241C121.725 470.241 126.025 471.141 133.325 467.341L134.125 466.841C134.125 466.841 133.525 466.841 129.425 464.541C125.325 462.241 121.125 450.941 119.925 445.941C118.725 440.941 110.325 436.341 110.825 428.441C110.86 426.357 111.704 424.368 113.178 422.894C114.652 421.42 116.64 420.577 118.725 420.541C118.625 420.341 118.125 420.241 117.925 420.041C116.542 419.113 114.883 418.689 113.225 418.841V418.841Z" fill="#2EB5DA"/>
<path d="M132.625 407.941C132.234 408.186 131.946 408.565 131.817 409.008C131.688 409.45 131.726 409.925 131.925 410.341C132.268 411.238 132.47 412.183 132.525 413.141L126.825 412.041L128.525 406.941L132.625 407.941Z" fill="#79A9D8"/>
<path d="M73.0246 671.941C73.0246 671.941 67.3246 673.641 66.2246 677.041C65.1246 680.441 67.9246 683.241 73.0246 684.941C78.1246 686.641 83.8246 689.441 85.5246 691.141C87.1246 692.741 106.625 697.841 107.225 692.341C107.262 692.007 107.217 691.669 107.095 691.355C106.974 691.042 106.778 690.763 106.525 690.541L106.225 690.241C106.225 690.241 92.9246 686.041 87.6246 678.641L87.3246 678.041C87.2246 678.141 82.1246 678.741 73.0246 671.941Z" fill="#6FB4DB"/>
<path d="M189.325 712.041L188.325 712.841C188.325 712.841 192.125 714.041 192.425 714.741C192.554 714.996 192.655 715.264 192.725 715.541C192.725 715.541 198.025 706.741 200.525 705.441L203.025 704.141L201.725 701.641C201.725 701.641 207.625 695.641 210.125 695.541C212.625 695.441 224.025 684.541 227.625 670.041C227.625 670.041 228.325 668.541 225.225 667.041C222.125 665.641 189.325 712.041 189.325 712.041Z" fill="#8FC5DB"/>
<path d="M181.925 694.341C181.925 694.341 196.425 688.641 198.225 681.941C201.19 681.649 204.13 681.147 207.025 680.441C211.325 679.341 217.325 667.741 221.825 666.141C226.325 664.541 226.925 668.541 226.225 670.041C225.525 671.541 219.125 687.941 209.725 693.541C200.225 699.141 189.225 712.141 189.225 712.141C189.225 712.141 176.625 704.341 181.925 694.341Z" fill="#6FB4DB"/>
<path d="M186.725 692.241C186.725 692.241 185.925 698.041 188.525 700.541C191.125 703.041 194.925 701.641 198.525 697.741C202.125 693.841 207.125 689.941 209.425 689.041C211.525 688.241 224.325 672.741 219.625 669.941C219.029 669.66 218.346 669.624 217.725 669.841L217.325 670.041C217.325 670.041 207.925 680.241 198.925 682.041H198.325C198.325 682.041 196.625 686.841 186.725 692.241Z" fill="#6FB4DB"/>
<path d="M198.825 480.741V481.641L199.425 481.941V481.341L198.825 480.741Z" fill="#BFBFBF"/>
<path d="M204.125 480.741V481.641H203.225L204.125 480.741Z" fill="#BFBFBF"/>
<path d="M204.225 479.041H203.225V480.041H204.225V479.041Z" fill="#BFBFBF"/>
<path d="M208.525 479.041H207.525V480.041H208.525V479.041Z" fill="#BFBFBF"/>
<path d="M210.125 479.041V479.941H211.025L210.725 479.541L210.125 479.041Z" fill="#BFBFBF"/>
<path d="M215.425 479.041V479.941H214.525L215.425 479.041Z" fill="#BFBFBF"/>
<path d="M215.625 479.641L217.525 492.941C217.525 492.941 185.125 511.041 188.025 498.641C190.925 486.241 192.825 468.241 192.825 468.241" fill="#DEF3FC"/>
<path d="M151.625 373.541L155.425 381.141C154.992 382.806 154.79 384.522 154.825 386.241C155.025 388.241 157.625 392.641 157.625 392.641L156.225 394.241C156.225 394.241 158.025 404.241 156.825 405.441C155.925 406.341 146.925 405.941 141.425 405.641C139.768 405.568 138.153 405.104 136.711 404.287C135.268 403.47 134.039 402.324 133.125 400.941C132.818 400.429 132.551 399.894 132.325 399.341C131.525 396.541 128.425 398.241 127.325 397.341C126.225 396.441 124.925 387.641 126.825 387.241C128.725 386.741 127.025 388.041 127.725 389.041C128.525 390.041 136.625 380.241 140.625 376.741C144.825 373.241 145.225 370.741 151.625 373.541Z" fill="#ECC9B1"/>
<path d="M354.625 595.941C354.725 596.241 354.925 596.541 355.025 596.841C355.596 598.199 355.836 599.673 355.725 601.141C355.186 609.932 355.152 618.746 355.625 627.541L343.825 634.141C347.325 620.641 351.525 605.441 354.625 595.941Z" fill="#8D6AFF"/>
<path d="M322.924 665.641L324.124 661.241C326.624 662.941 330.124 663.141 332.724 662.841V667.641C329.824 667.941 325.024 666.441 322.924 665.641Z" fill="#8D6AFF"/>
<path d="M360.924 670.241V664.541C362.673 665.952 364.882 666.665 367.125 666.541C367.461 666.558 367.798 666.524 368.125 666.441C368.608 666.448 369.087 666.346 369.525 666.141V669.941C366.325 671.541 362.824 670.841 360.924 670.241Z" fill="#8D6AFF"/>
<path d="M343.724 634.141L321.224 646.641C322.024 637.341 324.224 626.241 324.724 623.041C325.424 618.041 333.424 583.841 334.124 576.741C334.424 573.441 333.824 565.041 333.124 556.841C341.524 566.441 351.124 587.841 354.524 595.841C351.524 605.441 347.324 620.641 343.724 634.141Z" fill="#8D6AFF"/>
<path d="M341.124 644.041L321.124 655.041C320.962 652.242 320.995 649.435 321.224 646.641L343.724 634.141C342.824 637.541 341.924 640.941 341.124 644.041Z" fill="#8D6AFF"/>
<path d="M321.925 658.741C321.463 657.558 321.193 656.309 321.125 655.041L341.125 644.041C340.725 645.641 340.325 647.241 339.925 648.641L321.925 658.741Z" fill="#8D6AFF"/>
<path d="M335.224 662.641C334.624 662.741 333.724 662.841 332.724 662.941V661.641L324.824 658.741L324.124 661.241C323.165 660.594 322.404 659.694 321.924 658.641L339.924 648.641C338.324 654.641 337.124 659.341 336.624 661.341C336.548 661.673 336.373 661.974 336.124 662.206C335.874 662.437 335.561 662.589 335.224 662.641Z" fill="#8D6AFF"/>
<path d="M324.125 661.341L324.825 658.841L332.725 661.741V663.041C330.025 663.141 326.525 663.041 324.125 661.341Z" fill="#8D6AFF"/>
<path d="M355.625 601.141C355.752 599.672 355.511 598.194 354.925 596.841C354.834 596.524 354.699 596.221 354.525 595.941C356.025 591.141 357.225 587.741 357.925 586.841C361.525 581.841 344.225 546.241 344.225 546.241L331.225 538.441C331.225 538.441 332.225 547.541 333.125 557.041C332.925 556.841 332.725 556.541 332.525 556.341C331.58 555.301 330.865 554.075 330.425 552.741C328.299 545.599 327.188 538.193 327.125 530.741C327.325 530.541 327.525 530.441 327.725 530.241C328.055 530.557 328.473 530.766 328.925 530.841C335.725 533.241 343.625 533.041 350.525 532.041C353.125 535.541 355.725 538.941 357.125 540.441C355.525 540.541 354.325 540.541 354.325 540.541L356.525 542.741C359.645 543.138 362.804 543.138 365.925 542.741C370.225 542.041 368.125 539.141 368.125 539.141L367.425 538.441L366.125 539.141C366.025 539.141 366.025 539.141 365.925 539.241C365.408 537.823 364.772 536.452 364.025 535.141C363.927 534.92 363.792 534.717 363.625 534.541C363.125 533.941 361.925 532.241 360.225 529.941C362.806 529.224 365.344 528.355 367.825 527.341C367.925 527.741 368.025 528.241 368.125 528.741C370.025 542.941 375.225 580.441 377.525 587.441C378.625 590.641 378.625 601.841 378.325 614.841L355.525 627.541C355.103 618.745 355.136 609.934 355.625 601.141V601.141Z" fill="#8D6AFF"/>
<path d="M355.925 635.941C355.825 633.241 355.625 630.441 355.525 627.641L378.325 614.941C378.225 617.841 378.125 620.841 378.025 623.841L355.925 635.941Z" fill="#8D6AFF"/>
<path d="M356.125 639.641C356.025 638.441 356.024 637.141 355.924 635.941L378.125 623.741C378.125 625.041 378.025 626.241 378.025 627.541L356.125 639.641Z" fill="#8D6AFF"/>
<path d="M356.125 639.641L378.025 627.441C377.825 633.641 377.525 639.841 377.225 645.241L357.325 656.241C356.925 651.841 356.525 646.041 356.125 639.641Z" fill="#8D6AFF"/>
<path d="M369.625 666.141V662.441L360.925 663.841V664.441C359.941 663.643 359.125 662.657 358.524 661.542C357.923 660.426 357.549 659.202 357.425 657.941C357.425 657.441 357.325 656.841 357.325 656.241L377.225 645.241C377.025 650.041 376.725 654.341 376.525 657.641C376.402 659.6 375.672 661.472 374.435 662.995C373.198 664.519 371.516 665.619 369.625 666.141Z" fill="#8D6AFF"/>
<path d="M367.125 666.441C364.888 666.517 362.695 665.809 360.924 664.441V663.841L369.625 662.441V666.141C369.125 666.241 368.724 666.341 368.224 666.441H367.125Z" fill="#8D6AFF"/>
<path d="M344.325 546.141C344.325 546.141 361.625 581.741 358.025 586.741C357.325 587.741 356.125 591.041 354.625 595.841C351.225 587.941 341.725 566.441 333.225 556.841C332.325 547.341 331.325 538.241 331.325 538.241L344.325 546.141Z" fill="#8D6AFF"/>
<path d="M347.224 423.641C344.881 423.225 342.488 423.158 340.124 423.441C339.879 422.796 339.542 422.19 339.124 421.641C338.873 421.298 338.721 420.893 338.686 420.469C338.651 420.046 338.733 419.621 338.924 419.241C340.524 415.841 340.224 408.941 341.424 407.641C342.157 406.85 343.152 406.352 344.224 406.241C344.375 406.316 344.511 406.418 344.624 406.541C345.624 407.641 348.724 410.941 351.224 411.741C351.556 411.853 351.842 412.07 352.04 412.358C352.239 412.647 352.338 412.991 352.324 413.341C352.318 413.575 352.37 413.807 352.475 414.016C352.579 414.225 352.734 414.406 352.924 414.541C353.389 414.943 353.769 415.433 354.043 415.982C354.318 416.531 354.481 417.129 354.524 417.741C354.524 419.941 355.924 422.841 354.524 423.541C352.122 424.06 349.64 424.094 347.224 423.641V423.641Z" fill="#8D6AFF"/>
<path d="M339.924 440.641C340.207 440.027 340.441 439.392 340.625 438.741C341.425 435.841 341.125 434.141 340.625 433.241C340.784 433.085 340.911 432.899 340.997 432.692C341.083 432.486 341.126 432.265 341.125 432.041C341.407 430.074 341.305 428.07 340.825 426.141C341.973 426.996 343.4 427.388 344.825 427.241C347.725 426.541 350.424 432.141 350.424 432.141C350.405 432.677 350.438 433.212 350.524 433.741C351.224 436.641 351.224 438.041 352.724 440.941L353.325 442.141C353.032 442.059 352.728 442.025 352.424 442.041C348.232 441.844 344.057 441.376 339.924 440.641V440.641Z" fill="#8D6AFF"/>
<path d="M345.025 427.241C343.6 427.388 342.173 426.996 341.025 426.141C340.925 425.741 340.825 425.441 340.725 425.041C340.525 424.441 340.325 423.941 340.125 423.441C342.485 423.099 344.887 423.167 347.225 423.641C349.607 424.048 352.042 424.048 354.425 423.641C353.025 424.341 352.225 426.541 352.225 426.541C351.346 428.291 350.803 430.191 350.625 432.141C350.625 432.141 347.925 426.541 345.025 427.241Z" fill="#8D6AFF"/>
<path d="M362.024 521.141C360.324 520.541 358.424 519.941 356.224 519.241C356.629 518.725 356.911 518.124 357.05 517.483C357.188 516.842 357.18 516.178 357.024 515.541C357.542 514.899 357.849 514.112 357.902 513.289C357.956 512.465 357.754 511.645 357.324 510.941C355.646 508.47 353.664 506.219 351.424 504.241C350.513 503.451 349.94 502.342 349.824 501.141C349.324 497.341 348.324 488.741 349.424 484.341C349.524 484.041 349.524 483.741 349.624 483.441C349.824 483.041 350.124 482.641 350.324 482.141C359.924 464.841 355.224 461.241 348.724 455.441C343.724 450.941 335.624 448.641 332.224 447.841C332.61 447.208 333.044 446.606 333.524 446.041L334.224 443.141H333.924L335.524 441.541C335.998 441.094 336.573 440.769 337.201 440.595C337.828 440.421 338.488 440.402 339.124 440.541C339.424 440.541 339.724 440.641 340.024 440.641C339.662 441.596 338.994 442.405 338.124 442.941C337.837 443.077 337.593 443.288 337.417 443.553C337.24 443.817 337.139 444.124 337.124 444.441V445.741C337.122 445.965 337.165 446.187 337.25 446.394C337.335 446.601 337.46 446.789 337.618 446.948C337.776 447.106 337.964 447.231 338.172 447.316C338.379 447.401 338.601 447.443 338.824 447.441H353.624C353.918 447.441 354.207 447.365 354.462 447.221C354.718 447.076 354.931 446.868 355.082 446.616C355.233 446.364 355.317 446.078 355.324 445.784C355.331 445.491 355.263 445.2 355.124 444.941C354.624 444.141 354.124 443.141 353.624 442.141C354.258 442.257 354.858 442.515 355.377 442.896C355.897 443.278 356.323 443.772 356.624 444.341C359.624 449.941 366.124 462.741 366.724 468.341C367.424 475.141 367.424 514.741 369.924 522.241C370.224 523.116 370.224 524.066 369.924 524.941C369.726 525.618 369.422 526.259 369.024 526.841C368.728 527.073 368.388 527.243 368.024 527.341C367.552 525.925 366.768 524.632 365.729 523.559C364.691 522.486 363.425 521.66 362.024 521.141V521.141Z" fill="#8D6AFF"/>
<path d="M336.525 456.741C334.625 458.541 332.725 461.841 331.825 467.841C330.425 473.241 329.925 481.641 331.925 494.741C331.925 494.941 332.025 495.241 332.025 495.441C332.025 497.541 332.225 508.941 333.725 516.841C332.026 517.237 330.491 518.145 329.325 519.441C328.025 503.241 325.025 465.641 326.325 461.241C327.147 458.29 328.218 455.413 329.525 452.641C333.092 453.302 336.602 454.238 340.025 455.441C339.382 455.396 338.738 455.488 338.134 455.713C337.53 455.937 336.982 456.288 336.525 456.741V456.741Z" fill="#8D6AFF"/>
<path d="M344.125 457.141C348.525 459.241 352.325 462.241 352.925 466.241C353.51 470.341 352.547 474.512 350.225 477.941C350.625 471.541 349.725 463.041 344.125 457.141Z" fill="#8D6AFF"/>
<path d="M354.125 521.141C354.43 520.999 354.703 520.795 354.925 520.541C355.373 520.155 355.776 519.719 356.125 519.241C358.225 519.841 360.225 520.541 361.925 521.141C363.33 521.632 364.598 522.45 365.624 523.528C366.65 524.606 367.404 525.913 367.825 527.341C365.344 528.355 362.806 529.224 360.225 529.941C358.525 527.441 356.325 524.341 354.125 521.141Z" fill="#8D6AFF"/>
<path d="M329.825 526.741C329.825 526.441 329.625 523.641 329.225 519.341C330.391 518.045 331.926 517.137 333.625 516.741C334.225 520.041 335.125 522.741 336.325 523.841C340.625 528.141 344.225 526.041 344.225 526.041L345.625 525.341C347.025 527.341 348.725 529.641 350.425 531.941C343.525 532.941 335.625 533.141 328.825 530.741C328.405 530.582 328.003 530.381 327.625 530.141C328.207 529.758 328.703 529.257 329.081 528.672C329.46 528.087 329.713 527.429 329.825 526.741V526.741Z" fill="#8D6AFF"/>
<path d="M353.625 447.441H338.725C338.501 447.443 338.279 447.401 338.072 447.316C337.864 447.231 337.676 447.106 337.518 446.948C337.36 446.789 337.235 446.601 337.15 446.394C337.065 446.187 337.023 445.965 337.025 445.741V444.441C337.012 444.118 337.102 443.799 337.282 443.529C337.461 443.26 337.721 443.054 338.025 442.941C338.868 442.376 339.529 441.576 339.925 440.641C344.129 441.344 348.368 441.811 352.625 442.041C352.928 442.025 353.232 442.059 353.525 442.141C354.025 443.141 354.525 444.041 355.025 444.941C355.182 445.189 355.27 445.475 355.278 445.769C355.286 446.063 355.215 446.353 355.071 446.609C354.928 446.866 354.717 447.078 354.463 447.225C354.208 447.371 353.918 447.446 353.625 447.441V447.441Z" fill="#8D6AFF"/>
<path d="M331.925 494.641C330.025 481.541 330.425 473.141 331.825 467.741C331.025 473.041 331.125 480.541 332.625 491.041C332.625 491.241 332.725 491.541 332.725 491.741C332.725 494.241 332.925 508.841 335.125 516.341L333.625 516.641C332.125 508.741 331.925 497.441 331.925 495.241C332.025 495.141 332.025 494.941 331.925 494.641Z" fill="#8D6AFF"/>
<path d="M354.624 517.641C355.013 517.444 355.381 517.21 355.724 516.941C356.23 516.547 356.669 516.075 357.024 515.541C357.192 516.177 357.206 516.844 357.067 517.487C356.928 518.13 356.639 518.731 356.224 519.241L353.224 518.341L354.624 517.641Z" fill="#8D6AFF"/>
<path d="M353.225 518.341C354.225 518.641 355.325 518.941 356.225 519.241C355.874 519.718 355.472 520.154 355.025 520.541C354.725 520.741 354.525 520.941 354.225 521.141C353.725 520.341 353.225 519.541 352.625 518.741L353.225 518.341Z" fill="#8D6AFF"/>
<path d="M337.024 520.341C340.024 523.341 342.624 523.241 344.024 522.841C344.124 523.141 344.324 523.341 344.424 523.641C344.824 524.141 345.224 524.741 345.724 525.441L344.324 526.141C344.324 526.141 340.724 528.341 336.424 523.941C335.224 522.741 334.424 520.041 333.724 516.841L335.224 516.541C335.58 517.91 336.19 519.199 337.024 520.341V520.341Z" fill="#8D6AFF"/>
<path d="M363.625 534.441C363.725 534.641 363.925 534.841 364.025 535.041C364.772 536.352 365.408 537.723 365.925 539.141C363.092 539.945 360.168 540.381 357.225 540.441C355.825 538.941 353.225 535.541 350.625 532.041C353.903 531.569 357.144 530.867 360.325 529.941C361.825 532.141 363.125 533.841 363.625 534.441Z" fill="#8D6AFF"/>
<path d="M353.924 521.241C353.976 521.238 354.025 521.215 354.062 521.179C354.099 521.142 354.121 521.093 354.124 521.041C356.224 524.341 358.424 527.441 360.224 529.841C357.044 530.767 353.803 531.469 350.524 531.941C348.824 529.641 347.124 527.341 345.724 525.341L353.924 521.241Z" fill="#8D6AFF"/>
<path d="M345.725 525.341C345.325 524.741 344.825 524.141 344.425 523.541C344.233 523.308 344.096 523.034 344.025 522.741C344.366 522.629 344.7 522.496 345.025 522.341L352.625 518.541C353.125 519.341 353.625 520.141 354.225 520.941C354.125 520.941 354.125 521.041 354.025 521.141L345.725 525.341Z" fill="#8D6AFF"/>
<path d="M352.925 466.141C352.325 462.141 348.525 459.241 344.125 457.041L343.925 456.841C343.408 456.28 342.77 455.844 342.06 455.567C341.349 455.29 340.585 455.178 339.825 455.241C336.402 454.038 332.892 453.102 329.325 452.441C330.101 450.786 331.039 449.212 332.125 447.741C335.525 448.541 343.525 450.841 348.625 455.341C355.125 461.141 359.825 464.741 350.225 482.041C349.925 482.541 349.725 482.941 349.525 483.341C349.908 481.53 350.142 479.691 350.225 477.841C352.618 474.443 353.587 470.244 352.925 466.141V466.141Z" fill="#8D6AFF"/>
<path d="M350.725 507.841C349.813 507.051 349.24 505.941 349.125 504.741C348.625 500.941 347.625 492.341 348.725 487.941C349.048 486.591 349.282 485.222 349.425 483.841C349.525 483.741 349.525 483.641 349.625 483.441C349.525 483.741 349.525 484.041 349.425 484.341C348.325 488.741 349.325 497.341 349.825 501.141C349.984 502.328 350.549 503.424 351.425 504.241C353.664 506.219 355.646 508.47 357.325 510.941C357.754 511.645 357.956 512.465 357.902 513.289C357.849 514.112 357.542 514.899 357.025 515.541C356.935 515.192 356.8 514.856 356.625 514.541C354.916 512.093 352.937 509.845 350.725 507.841V507.841Z" fill="#8D6AFF"/>
<path d="M336.525 456.741C337.425 455.841 339.625 453.141 340.825 453.041C342.225 453.541 344.425 455.241 345.825 455.841C351.325 461.841 350.625 471.541 350.225 477.941L349.625 478.841C349.625 472.841 348.225 465.741 343.325 460.541C342.352 459.529 341.019 458.94 339.616 458.903C338.212 458.865 336.85 459.382 335.825 460.341C334.325 461.741 331.125 463.441 330.125 467.241C331.025 461.141 334.625 458.441 336.525 456.741Z" fill="#8D6AFF"/>
<path d="M355.724 516.941C355.397 517.231 355.026 517.468 354.624 517.641L351.424 519.241C351.124 519.141 352.524 518.241 352.224 518.141C351.535 517.139 350.489 516.437 349.301 516.177C348.113 515.917 346.87 516.119 345.824 516.741C341.296 516.283 336.728 516.383 332.224 517.041C330.024 509.441 331.524 496.041 331.524 493.541V491.441C329.924 480.941 329.324 472.541 330.124 467.241C331.124 463.441 334.324 461.741 335.824 460.341C336.85 459.383 338.212 458.866 339.615 458.904C341.019 458.941 342.351 459.529 343.324 460.541C348.224 465.741 349.624 472.841 349.624 478.841C348.699 480.07 347.624 481.179 346.424 482.141C346.424 482.141 341.024 498.241 349.324 483.841C349.124 485.441 348.824 486.941 348.624 487.941C347.524 492.341 348.524 500.941 349.024 504.741C349.184 505.928 349.749 507.024 350.624 507.841C352.864 509.819 354.846 512.07 356.524 514.541C356.7 514.856 356.835 515.192 356.924 515.541C356.633 516.091 356.223 516.569 355.724 516.941V516.941Z" fill="#8D6AFF"/>
<path d="M337.025 520.341C336.077 519.219 335.424 517.879 335.125 516.441C338.686 516 342.293 516.102 345.825 516.741C345.501 516.943 345.199 517.177 344.925 517.441C344.239 518.14 343.778 519.026 343.6 519.988C343.422 520.95 343.535 521.944 343.925 522.841C342.625 523.141 340.025 523.241 337.025 520.341Z" fill="#8D6AFF"/>
<path d="M352.224 518.141C352.512 518.255 352.816 518.323 353.124 518.341L352.524 518.641C352.463 518.594 352.414 518.533 352.379 518.464C352.345 518.395 352.326 518.319 352.324 518.241L352.224 518.141Z" fill="#8D6AFF"/>
<path d="M352.225 518.141C350.125 517.641 347.925 517.141 345.825 516.741C346.868 516.114 348.113 515.909 349.303 516.169C350.493 516.43 351.538 517.135 352.225 518.141V518.141Z" fill="#8D6AFF"/>
<path d="M344.924 517.441C345.199 517.177 345.501 516.943 345.824 516.741C348.024 517.141 350.124 517.541 352.224 518.141C352.224 518.241 352.324 518.241 352.324 518.341C352.385 518.389 352.435 518.449 352.47 518.519C352.504 518.588 352.523 518.664 352.524 518.741L344.924 522.541C344.6 522.696 344.266 522.829 343.924 522.941C343.555 522.024 343.452 521.02 343.629 520.047C343.806 519.073 344.255 518.17 344.924 517.441Z" fill="#8D6AFF"/>
<path d="M349.625 478.841L350.225 477.941C350.128 479.789 349.894 481.628 349.525 483.441C349.425 483.541 349.425 483.641 349.325 483.841C349.527 482.182 349.627 480.512 349.625 478.841V478.841Z" fill="#8D6AFF"/>
<path d="M344.024 459.541C344.124 459.541 344.125 459.641 344.225 459.641C342.825 459.241 341.324 458.841 339.924 458.541C341.356 458.503 342.771 458.849 344.024 459.541V459.541Z" fill="#8D6AFF"/>
<path d="M349.325 483.741C341.025 498.241 346.425 482.041 346.425 482.041C347.627 481.081 348.702 479.972 349.625 478.741C349.633 480.413 349.533 482.083 349.325 483.741V483.741Z" fill="#8D6AFF"/>
<path d="M321.925 665.341C322.27 665.441 322.605 665.575 322.925 665.741L322.625 666.841C322.625 666.841 329.125 670.441 332.725 668.241V667.841C333.21 667.872 333.694 667.768 334.125 667.541L335.425 668.341L325.225 673.941C324.025 673.941 322.025 674.141 319.625 674.341C318.825 673.041 318.725 670.541 321.925 665.341Z" fill="#8D6AFF"/>
<path d="M326.524 673.841H325.224L335.424 668.241L343.224 672.741C334.724 673.041 326.524 673.841 326.524 673.841Z" fill="#8D6AFF"/>
<path d="M322.424 675.441C321.92 675.484 321.412 675.407 320.942 675.215C320.473 675.024 320.056 674.725 319.724 674.341C321.581 674.092 323.451 673.959 325.324 673.941L322.424 675.441Z" fill="#8D6AFF"/>
<path d="M326.525 673.841C326.525 673.841 334.625 673.141 343.225 672.741L347.825 675.441C347.825 675.441 350.025 678.341 347.825 679.041C345.625 679.741 326.825 676.141 322.525 675.441H322.325L325.125 673.841H326.525Z" fill="#8D6AFF"/>
<path d="M322.625 666.741L322.925 665.641C325.025 666.341 329.825 667.941 332.725 667.741V668.141C329.125 670.341 322.625 666.741 322.625 666.741Z" fill="#8D6AFF"/>
<path d="M385.924 675.241C385.924 675.241 367.924 676.641 362.424 673.841C361.072 673.351 359.659 673.048 358.224 672.941C358.555 671.817 358.956 670.715 359.424 669.641C359.87 669.887 360.339 670.088 360.824 670.241V671.141C362.188 671.772 363.672 672.098 365.174 672.098C366.677 672.098 368.161 671.772 369.524 671.141V670.041C369.778 669.946 370.014 669.811 370.224 669.641C370.224 669.641 385.424 672.541 386.824 673.941C387.924 675.041 388.224 676.141 387.924 676.941C387.345 676.279 386.671 675.706 385.924 675.241V675.241Z" fill="#8D6AFF"/>
<path d="M373.925 679.041C368.825 679.741 360.925 679.041 360.925 679.041C360.925 679.041 356.625 679.041 358.225 672.941C359.662 673.024 361.079 673.328 362.425 673.841C367.925 676.641 385.925 675.241 385.925 675.241C386.665 675.756 387.367 676.324 388.025 676.941C387.925 677.141 387.825 677.441 387.625 677.541C386.925 678.341 378.925 678.341 373.925 679.041Z" fill="#8D6AFF"/>
<path d="M360.924 671.041V670.141C363.754 671.126 366.844 671.055 369.625 669.941V671.041C368.261 671.672 366.777 671.998 365.275 671.998C363.772 671.998 362.288 671.672 360.924 671.041Z" fill="#8D6AFF"/>
<path d="M358.024 541.241C360.224 542.641 365.224 541.241 365.924 540.541C366.124 540.341 366.024 539.841 365.824 539.141C365.924 539.141 365.924 539.141 366.024 539.041L367.324 538.341L368.024 539.041C368.024 539.041 370.224 541.941 365.824 542.641C362.704 543.038 359.545 543.038 356.424 542.641L354.224 540.441C354.224 540.441 355.324 540.441 357.024 540.341C357.524 540.841 357.824 541.041 358.024 541.241Z" fill="#8D6AFF"/>
<path d="M365.924 540.541C365.224 541.241 360.124 542.741 358.024 541.241C357.709 541.029 357.437 540.757 357.224 540.441C359.824 540.341 363.724 540.041 365.924 539.141C366.028 539.36 366.081 539.599 366.081 539.841C366.081 540.083 366.028 540.322 365.924 540.541V540.541Z" fill="#8D6AFF"/>
<path d="M337.025 404.141L339.225 409.941C340.825 414.241 338.825 418.941 337.725 421.041C337.57 421.367 337.517 421.731 337.57 422.087C337.623 422.443 337.782 422.775 338.025 423.041L338.625 423.641C339.048 424.169 339.417 424.738 339.725 425.341C339.825 425.541 339.925 425.641 339.925 425.841C340.306 427.753 340.34 429.718 340.025 431.641C339.98 432.064 340.086 432.489 340.325 432.841C340.446 432.994 340.547 433.162 340.625 433.341C340.361 433.653 340.014 433.884 339.625 434.007C339.236 434.131 338.82 434.143 338.425 434.041C338.225 433.941 337.925 433.941 337.725 433.741C336.325 433.041 327.625 429.441 325.425 426.541C323.225 423.641 324.025 420.041 324.025 417.841C324.025 415.641 321.125 411.341 320.425 409.141C319.625 406.841 320.525 400.441 324.825 401.241C328.525 402.041 332.125 399.741 333.625 396.241C334.025 395.441 334.525 395.041 336.325 395.441C339.925 396.141 336.325 399.041 341.425 397.641C346.525 396.241 345.025 406.341 344.325 406.341H344.225C344.185 406.303 344.138 406.274 344.086 406.257C344.034 406.24 343.979 406.234 343.925 406.241L337.025 404.141Z" fill="#8D6AFF"/>
<path d="M338.825 419.341C338.633 419.721 338.551 420.146 338.586 420.569C338.621 420.993 338.773 421.398 339.025 421.741C339.405 422.314 339.739 422.916 340.025 423.541L338.625 423.641L338.025 423.041C337.76 422.788 337.588 422.454 337.533 422.092C337.479 421.73 337.546 421.361 337.725 421.041C338.825 418.941 340.825 414.241 339.225 409.941L337.025 404.141L343.825 406.141C343.925 406.141 344.025 406.241 344.125 406.241C343.058 406.371 342.069 406.866 341.325 407.641C340.125 408.941 340.525 415.941 338.825 419.341Z" fill="#8D6AFF"/>
<path d="M340.024 431.541C340.339 429.617 340.305 427.653 339.924 425.741C339.824 425.541 339.824 425.441 339.724 425.241C340.101 425.542 340.502 425.81 340.924 426.041C341.304 427.984 341.405 429.97 341.224 431.941C341.138 432.37 340.968 432.778 340.724 433.141C340.647 432.962 340.546 432.794 340.424 432.641C340.287 432.494 340.181 432.321 340.113 432.132C340.044 431.943 340.014 431.742 340.024 431.541Z" fill="#8D6AFF"/>
<path d="M338.625 423.541L340.025 423.441C340.225 423.941 340.425 424.441 340.625 425.041C340.725 425.441 340.825 425.741 340.925 426.141C340.525 425.841 340.025 425.541 339.725 425.341C339.441 424.694 339.071 424.089 338.625 423.541V423.541Z" fill="#8D6AFF"/>
<path d="M327.224 529.641L327.824 530.241C327.624 530.441 327.424 530.541 327.224 530.741V529.641Z" fill="#8D6AFF"/>
<path d="M333.725 430.941C333.725 430.941 331.625 444.241 333.725 443.941C335.825 443.741 355.125 443.041 357.225 445.141C359.325 447.241 366.525 439.441 362.225 435.141C357.925 430.941 333.725 430.241 333.725 430.941Z" fill="#8D6AFF"/>
<path d="M361.525 442.341C361.525 442.341 369.325 454.441 371.525 465.141C373.625 475.841 367.925 487.941 367.925 492.141C367.848 494.297 368.084 496.453 368.625 498.541C368.625 498.541 362.225 492.841 359.325 494.241C356.425 495.641 364.325 446.541 357.225 443.741C350.125 440.941 361.525 442.341 361.525 442.341Z" fill="#8D6AFF"/>
<path d="M296.025 417.841C296.025 417.841 298.225 435.441 297.825 437.441C297.425 439.441 305.225 447.641 305.225 447.641L311.325 442.141C311.325 442.141 310.625 430.041 313.225 423.741C315.925 417.341 297.025 414.341 297.025 414.341L296.025 417.841Z" fill="#B297FF"/>
<path d="M304.125 393.941C310.425 391.041 317.725 395.341 318.825 402.141C319.474 407.217 319.542 412.35 319.025 417.441C317.325 438.841 305.525 429.941 302.425 425.941C299.325 421.841 296.925 415.241 296.925 415.241C296.925 415.241 295.525 415.741 293.125 412.041C290.725 408.241 290.625 403.841 292.725 405.441C297.225 408.741 298.325 404.941 299.025 402.741C299.425 401.241 298.925 396.341 304.125 393.941Z" fill="#B297FF"/>
<path d="M325.825 673.641C325.825 673.641 336.025 680.241 339.925 680.841C343.825 681.441 351.625 684.441 353.425 687.441C355.225 690.441 345.625 691.641 337.125 690.441C328.625 689.241 316.325 684.741 313.025 686.241C309.725 687.741 307.925 683.741 307.625 682.241C307.325 680.841 309.025 672.841 309.025 672.841L325.825 673.641Z" fill="#B297FF"/>
<path d="M302.725 670.941C302.725 670.941 308.225 678.141 309.825 680.241C311.425 682.341 330.825 686.241 333.925 688.341C337.025 690.441 331.825 694.641 325.825 694.341C319.825 694.041 318.125 693.441 309.825 692.241C304.287 691.488 298.712 691.054 293.125 690.941C293.125 690.941 287.925 692.241 285.425 688.941C282.925 685.641 282.325 682.041 283.525 679.941C284.725 677.841 288.125 676.841 288.125 672.841C288.125 668.841 302.725 670.941 302.725 670.941Z" fill="#B297FF"/>
<path d="M329.125 522.441C329.125 522.441 339.625 610.541 336.425 619.341C333.325 628.141 332.025 671.941 327.925 674.841C323.925 677.741 310.925 676.141 308.925 672.841C308.925 672.841 317.225 594.041 312.425 579.041C307.725 564.041 305.525 561.941 305.525 561.941C305.525 561.941 307.025 609.041 307.925 613.741C308.825 618.441 305.525 672.141 305.525 672.141C305.525 672.141 291.725 677.941 284.825 670.341C284.825 670.341 282.025 563.841 280.725 543.941C280.025 533.641 291.325 518.441 291.325 518.441L329.125 522.441Z" fill="#B297FF"/>
<path d="M330.025 529.741C330.025 529.741 305.325 545.841 285.525 528.141L287.825 520.441L330.025 522.241V529.741Z" fill="#B297FF"/>
<path d="M291.125 437.741C291.125 437.741 280.425 443.241 279.525 447.241C278.625 451.241 280.725 520.541 286.125 525.041C287.325 526.041 298.525 533.141 315.625 530.641C325.325 529.141 334.825 523.841 335.925 514.041C337.625 498.541 338.125 471.841 333.825 454.441C333.174 451.749 331.822 449.277 329.908 447.275C327.994 445.273 325.585 443.812 322.925 443.041L315.525 440.841L306.825 444.841L291.125 437.741Z" fill="#B297FF"/>
<path d="M311.225 435.341L321.225 442.141L313.525 442.341L306.425 448.141L296.025 444.141L285.425 439.241L294.725 435.341L305.225 440.741L311.225 435.341Z" fill="#B297FF"/>
<path d="M324.225 445.941C324.225 445.941 331.125 494.041 335.025 500.741L337.225 480.941C337.125 480.941 333.425 445.041 324.225 445.941Z" fill="#B297FF"/>
<path d="M305.25 536.425H314.45V531.225H305.25V536.425Z" fill="#B297FF"/>
<path d="M287.625 439.241C287.625 439.241 261.025 446.141 268.425 507.741L268.725 514.641C269.325 522.041 269.625 526.241 276.825 528.141C279.425 528.841 286.225 526.041 287.625 524.541C298.925 512.341 284.925 516.841 283.125 497.441C280.525 470.841 287.625 439.241 287.625 439.241Z" fill="#B297FF"/>
<path d="M307.425 508.341C307.425 508.341 299.625 504.841 291.625 508.141C291.525 508.241 291.325 508.241 291.225 508.341L295.725 512.841L305.625 510.141L307.425 508.341Z" fill="#B297FF"/>
<path d="M307.425 508.341V532.541C307.425 532.541 298.425 536.141 291.225 532.541V508.041C291.225 508.041 295.725 512.841 307.425 508.341Z" fill="#B297FF"/>
<path d="M292.125 514.641C292.125 514.641 289.425 512.841 287.625 512.841C285.825 512.841 284.025 517.341 284.925 520.041C285.825 522.741 292.125 527.241 292.125 527.241V514.641Z" fill="#B297FF"/>
<path d="M288.125 511.541C288.125 511.541 284.525 508.841 281.825 511.541C279.125 514.241 276.425 518.741 275.525 519.641C274.704 520.352 273.796 520.957 272.825 521.441C272.825 521.441 276.425 527.741 279.125 526.841C281.825 525.941 289.025 525.041 289.025 523.241C289.025 521.441 289.925 518.741 289.025 518.741C288.125 518.741 289.025 516.941 289.025 516.041C289.025 515.141 289.025 512.341 288.125 511.541Z" fill="#B297FF"/>
<path d="M128.925 397.341C128.925 397.341 118.825 388.141 121.525 383.541C124.225 378.941 123.325 375.241 127.025 372.441C130.725 369.641 127.925 373.341 134.425 368.741C140.825 364.141 141.825 362.341 143.625 362.341C145.425 362.341 151.025 362.341 151.025 364.141C151.025 365.941 147.325 366.941 151.025 367.841C154.725 368.741 157.025 367.841 157.225 371.541C157.425 375.241 152.825 378.641 152.825 378.641C152.825 378.641 149.125 375.141 142.725 377.941C136.325 380.741 136.525 381.441 136.325 385.341C136.367 385.804 136.29 386.269 136.103 386.694C135.915 387.118 135.622 387.488 135.252 387.769C134.882 388.049 134.446 388.23 133.987 388.295C133.527 388.36 133.058 388.307 132.625 388.141C132.625 388.141 132.625 389.941 129.825 390.941C127.125 391.841 127.125 395.541 128.925 397.341Z" fill="#696969"/>
<path d="M126.625 535.341V550.341H163.625V526.041L126.625 535.341Z" fill="#6690D8"/>
<path d="M143.925 516.341H166.625V537.341H124.625V518.341L143.925 516.341Z" fill="#79A9D8"/>
<path d="M104.625 458.341L102.625 469.341L131.625 515.341C131.625 515.341 134.625 526.341 142.625 528.341C150.625 530.341 149.625 529.341 149.625 529.341C149.625 529.341 144.625 515.341 140.625 511.341C136.625 507.341 134.625 507.341 134.625 507.341L114.725 468.741L116.925 454.941L104.625 458.341Z" fill="#ECC9B1"/>
<path d="M139.625 510.341C139.625 510.341 144.325 507.341 148.425 516.341" stroke="#6690D8"/>
<path d="M148.625 533.341H141.625V535.341H148.625V533.341Z" fill="#6690D8"/>
<path d="M585.625 667.341L1665.62 689.341L1710.62 1325.34C1710.62 1325.34 1374.92 1634.54 1050.62 1295.34C941.625 1181.34 1013.62 922.341 800.625 802.341C753.225 775.641 487.625 695.341 487.625 695.341L585.625 667.341Z" fill="url(#paint3_linear_60_8498)"/>
<path d="M713.624 704.341C713.624 704.341 741.625 711.341 734.625 714.341C727.625 717.341 702.624 713.341 693.624 715.341C684.624 717.341 643.624 742.341 622.624 732.341C601.624 722.341 533.625 716.341 526.625 716.341C519.625 716.341 470.625 705.341 467.625 702.341C464.625 699.341 573.625 672.341 584.625 676.341C595.625 680.341 607.624 701.341 625.624 696.341C634.824 693.741 645.324 695.441 653.424 697.641C663.776 700.45 674.555 701.331 685.224 700.241C695.024 699.241 705.224 698.341 706.724 699.041C709.624 700.341 713.624 704.341 713.624 704.341Z" fill="black" fill-opacity="0.38"/>
<path d="M468.725 332.941H588.625V702.341H467.625L468.725 332.941Z" fill="#3B32EF"/>
<path d="M588.625 679.341C588.625 679.341 568.625 665.341 554.625 664.341C540.625 663.341 538.625 660.341 527.625 674.341C516.625 688.341 469.625 701.841 469.625 701.841L588.625 702.341V679.341Z" fill="black" fill-opacity="0.38"/>
<path opacity="0.4" d="M481.924 333.341L553.325 702.641L467.625 702.341L468.625 333.341H481.924Z" fill="#0024D9"/>
<path d="M731.825 448.241C731.825 448.241 740.225 443.841 744.825 441.141C749.425 438.441 750.525 430.741 750.525 430.741L743.924 429.641L734.025 432.941L726.325 443.941L731.825 448.241Z" fill="#FFC692"/>
<path opacity="0.18" d="M588.625 340.341V668.341L468.625 634.341V392.341L588.625 340.341Z" fill="#0024D9"/>
<path opacity="0.54" d="M588.624 407.341L588.224 340.641L1568.68 23.3412L1601.56 966.141L588.624 668.441V407.341Z" fill="url(#paint4_linear_60_8498)"/>
<path d="M680.525 393.541C679.325 393.541 672.625 402.041 671.425 405.141C670.225 408.141 672.025 411.241 672.025 411.241C672.025 411.241 657.425 408.241 655.625 405.141C655.625 405.141 659.325 397.841 656.225 391.741C653.225 385.641 666.525 374.141 666.525 374.141L679.925 393.041L680.525 393.541Z" fill="#F5AF7E"/>
<path d="M688.824 363.041L691.024 371.741C690.368 373.383 689.898 375.094 689.624 376.841C689.424 378.941 691.024 384.141 691.024 384.141L689.524 385.441C689.524 385.441 689.524 396.041 688.224 396.941C687.224 397.641 679.224 394.941 674.224 393.341C672.643 392.78 671.209 391.868 670.031 390.673C668.853 389.478 667.962 388.031 667.424 386.441C667.197 385.866 667.062 385.259 667.024 384.641C666.724 381.641 663.624 382.541 662.824 381.341C662.024 380.141 661.524 374.441 663.324 374.441C665.124 374.441 664.124 371.641 664.724 372.941C665.224 374.241 674.324 366.141 678.624 363.541C682.724 361.041 683.524 358.641 688.824 363.041Z" fill="#FFC692"/>
<path d="M671.924 410.741L676.725 417.441L676.924 411.841L671.924 410.741Z" fill="#FE9D00"/>
<path d="M647.125 573.041C647.125 573.041 639.825 591.941 636.825 594.941C633.825 597.941 584.525 643.041 579.625 651.541C574.725 660.041 584.525 674.041 583.925 675.241C583.325 676.441 567.525 658.241 566.925 653.941C566.325 649.641 570.625 650.941 573.025 646.641C575.425 642.341 605.225 589.441 625.325 582.141C625.325 582.141 629.025 575.441 628.325 568.741C627.625 562.041 647.125 573.041 647.125 573.041Z" fill="#F5AF7E"/>
<path d="M673.725 419.741L694.525 468.041L725.225 441.741C725.225 441.741 731.825 446.141 732.925 450.541C732.925 450.541 709.925 476.841 694.525 484.541L669.325 460.341L673.725 419.741Z" fill="#FE6B03"/>
<path d="M645.924 484.241L656.825 486.041C656.825 486.041 661.124 477.541 654.424 464.141C647.724 450.741 651.424 416.641 651.424 416.641L661.725 412.941L653.224 408.641L673.325 411.641C672.725 417.741 680.624 428.041 682.424 432.341C684.224 436.641 687.324 443.341 685.424 446.941C683.624 450.641 679.325 466.441 679.325 476.741C679.295 479.689 679.53 482.635 680.025 485.541C680.432 487.446 680.6 489.395 680.525 491.341C677.225 494.641 647.924 490.941 642.424 490.241C643.224 490.141 644.524 488.841 645.924 484.241Z" fill="#FD8F00"/>
<path d="M641.625 490.241C641.927 490.252 642.227 490.286 642.525 490.341C642.388 490.436 642.221 490.478 642.056 490.46C641.89 490.442 641.737 490.364 641.625 490.241V490.241Z" fill="url(#paint5_linear_60_8498)"/>
<path d="M657.425 421.541C657.425 421.541 655.025 451.341 661.725 464.741C668.425 478.141 656.825 486.041 656.825 486.041L645.925 484.241C646.325 483.041 646.725 481.641 647.125 479.941C650.125 467.141 642.225 436.141 641.625 431.841C641.025 427.541 653.225 408.741 653.225 408.741L661.725 413.041L657.425 421.541Z" fill="#FE9D00"/>
<path d="M699.425 685.041C700.625 682.041 679.325 644.841 675.125 629.641C670.825 614.441 675.725 596.141 676.325 589.441C676.925 582.741 672.625 573.041 672.625 573.041L664.325 571.841L664.025 571.241C664.025 571.241 673.725 556.641 681.625 564.541C689.525 572.441 685.925 576.141 686.525 587.641C687.125 599.241 700.525 680.141 706.025 683.741C711.525 687.441 724.925 697.141 724.925 697.141L723.125 697.741C721.725 698.241 707.325 696.541 700.225 695.741C700.225 693.441 698.525 687.341 699.425 685.041Z" fill="#FFC692"/>
<path d="M698.225 695.541C697.025 695.441 696.325 695.341 696.325 695.341C696.253 694.912 696.219 694.477 696.225 694.041L696.325 694.141C696.425 694.141 697.225 694.841 698.225 695.541Z" fill="#FFC692"/>
<path d="M700.624 697.341C701.324 697.941 699.724 696.741 698.224 695.541C698.824 695.641 699.424 695.641 700.224 695.741C700.145 696.306 700.289 696.88 700.624 697.341Z" fill="#F5AF7E"/>
<path d="M697.025 686.841C698.225 681.341 681.824 655.841 673.924 635.741C666.024 615.641 671.524 588.241 671.524 588.241L664.424 571.741L672.724 572.941C672.724 572.941 680.024 582.041 679.424 588.741C678.824 595.441 673.324 613.041 677.624 628.341C681.924 643.541 703.825 683.741 702.525 686.741C701.625 689.041 700.325 693.341 700.325 695.741C699.662 695.635 698.995 695.568 698.325 695.541C697.325 694.741 696.424 694.141 696.424 694.141L696.325 694.041C696.19 691.62 696.426 689.192 697.025 686.841V686.841Z" fill="#F5AF7E"/>
<path d="M679.924 486.041C679.924 486.041 650.724 487.241 645.824 484.241C645.824 484.241 637.324 495.841 636.124 502.541C634.924 509.241 639.124 522.641 637.924 528.141C636.724 533.641 631.224 565.241 625.724 569.541C625.724 569.541 657.924 584.141 689.624 570.141C689.624 570.141 680.524 536.641 678.624 528.741C676.724 520.841 684.824 503.041 679.924 486.041Z" fill="#0027E0"/>
<path d="M656.824 486.041C656.824 486.041 645.824 498.241 647.124 511.641C648.324 524.941 647.124 525.641 664.124 574.441C664.224 574.841 664.025 575.741 664.225 576.141C664.225 576.141 642.324 576.741 625.924 569.441C625.924 569.441 637.824 535.641 637.524 525.641C637.224 515.641 631.824 504.541 641.824 490.341L646.124 484.241L656.824 486.041Z" fill="#3B32EF"/>
<path d="M743.825 707.541C743.825 707.541 729.824 711.241 718.924 708.141C708.024 705.041 706.124 702.041 704.324 702.041C704.087 702.036 703.85 702.079 703.63 702.168C703.409 702.257 703.209 702.389 703.04 702.557C702.872 702.725 702.74 702.926 702.651 703.146C702.563 703.367 702.519 703.603 702.524 703.841L696.424 703.241C696.424 703.241 695.224 698.941 695.824 697.141C696.424 695.341 706.824 698.941 706.824 698.941L743.825 707.541Z" fill="#103389"/>
<path d="M696.425 694.441C696.425 694.441 718.324 698.441 725.024 697.141C725.024 697.141 736.025 703.241 740.225 705.041C744.525 706.841 744.524 706.841 743.924 707.441C743.324 708.041 720.824 706.841 714.124 703.741C707.424 700.741 703.824 698.841 700.124 699.441C696.424 700.241 694.525 698.341 696.425 694.441Z" fill="url(#paint6_linear_60_8498)"/>
<path d="M589.424 695.041C589.424 695.041 577.124 687.541 571.624 677.541C566.224 667.541 567.124 664.141 565.824 662.841C565.656 662.666 565.455 662.526 565.231 662.431C565.008 662.335 564.767 662.286 564.524 662.286C564.282 662.286 564.041 662.335 563.818 662.431C563.594 662.526 563.393 662.666 563.224 662.841L559.424 658.041C559.424 658.041 561.624 654.241 563.424 653.341C565.124 652.541 569.724 662.541 569.724 662.541L589.424 695.041Z" fill="#103389"/>
<path d="M565.925 651.841C565.925 651.841 578.325 670.341 583.825 674.341C583.825 674.341 587.025 686.441 588.725 690.741C590.325 695.041 590.325 695.041 589.525 695.041C588.625 695.041 573.925 677.941 571.425 671.041C568.925 664.141 567.725 660.241 564.825 658.041C561.825 655.841 561.825 653.241 565.925 651.841Z" fill="url(#paint7_linear_60_8498)"/>
<path d="M653.825 402.641L674.525 411.141L672.625 417.841L647.125 407.541L653.825 402.641Z" fill="#FE6B03"/>
<path d="M634.224 546.641H679.224C679.224 546.641 677.024 596.041 679.224 606.941C679.224 606.941 642.525 610.041 634.625 605.641C634.625 605.641 637.324 563.241 634.224 546.641Z" fill="#00CBFE"/>
<path d="M679.224 606.941C679.224 606.941 681.824 596.841 687.124 599.941C687.124 599.941 678.425 562.841 688.025 545.341L678.824 546.641C678.824 546.641 671.324 599.041 679.224 606.941Z" fill="#00B3FF"/>
<path d="M634.224 546.641C634.224 546.641 642.925 547.541 649.125 543.141L687.625 545.341C687.625 545.341 689.625 544.741 684.125 551.441C680.225 556.241 677.324 547.941 678.924 549.741C679.424 550.341 678.525 549.741 678.525 549.741" fill="#0589C1"/>
<path d="M650.825 547.941C650.825 547.941 649.125 526.541 657.825 526.541C666.525 526.541 667.025 549.241 667.025 549.241" stroke="#FE6B03"/>
<path d="M655.325 543.241C655.325 543.241 651.025 527.141 655.425 526.341C659.825 525.441 672.925 544.241 672.925 544.241" stroke="#FE6B03"/>
<path d="M639.075 464.516L634.831 474.858L653.625 525.878C653.625 525.878 653.741 532.275 661.149 535.895C662.33 536.539 663.602 536.997 664.923 537.253C666.832 537.482 667.399 537.181 666.336 535.895C666.277 535.052 666.277 534.206 666.337 533.363C666.167 529.972 665.105 526.687 663.259 523.838C660.179 519.094 658.223 518.678 658.223 518.678L646.789 476.788L651.811 463.749L639.075 464.516Z" fill="#ECC9B1"/>
<path d="M663.325 423.641C663.325 423.641 657.325 416.541 651.825 420.941C647.125 424.641 636.924 462.741 633.924 473.841C633.424 475.826 633.528 477.916 634.224 479.841L649.625 521.841C649.625 521.841 660.624 518.541 661.724 516.341L648.525 473.541C648.525 473.541 670.425 443.941 663.325 423.641Z" fill="#FE6B03"/>
<path d="M764.025 425.141L748.225 440.941C747.875 441.284 747.432 441.515 746.951 441.604C746.47 441.693 745.973 441.636 745.525 441.441L735.725 436.941C735.355 436.776 735.034 436.518 734.793 436.192C734.551 435.866 734.398 435.484 734.348 435.082C734.298 434.68 734.352 434.272 734.506 433.897C734.659 433.522 734.907 433.193 735.225 432.941L752.725 418.641C753.042 418.385 753.42 418.214 753.823 418.144C754.225 418.074 754.639 418.107 755.025 418.241L763.025 421.241C763.414 421.355 763.768 421.569 764.05 421.861C764.332 422.153 764.534 422.513 764.635 422.906C764.736 423.3 764.732 423.713 764.625 424.105C764.518 424.496 764.311 424.854 764.025 425.141Z" fill="#0766FF"/>
<path d="M763.225 423.541L747.425 439.341C747.075 439.684 746.632 439.914 746.151 440.003C745.67 440.092 745.173 440.036 744.725 439.841L734.925 435.341C734.555 435.176 734.234 434.918 733.993 434.592C733.751 434.266 733.598 433.884 733.548 433.482C733.498 433.08 733.552 432.672 733.706 432.297C733.859 431.922 734.107 431.593 734.425 431.341L751.925 417.041C752.242 416.785 752.62 416.614 753.023 416.544C753.425 416.474 753.839 416.507 754.225 416.641L762.225 419.641C762.614 419.755 762.968 419.969 763.25 420.261C763.532 420.553 763.734 420.913 763.835 421.307C763.936 421.7 763.932 422.113 763.825 422.505C763.718 422.896 763.511 423.254 763.225 423.541Z" fill="#1F3DFD"/>
<path d="M762.025 423.141L748.224 436.941C747.913 437.245 747.516 437.447 747.087 437.518C746.658 437.59 746.217 437.528 745.825 437.341L737.224 433.441C736.904 433.292 736.627 433.063 736.421 432.776C736.214 432.489 736.085 432.154 736.045 431.803C736.004 431.452 736.055 431.096 736.192 430.77C736.328 430.444 736.546 430.159 736.825 429.941L752.224 417.441C752.512 417.201 752.861 417.045 753.232 416.992C753.603 416.939 753.981 416.991 754.325 417.141L761.325 419.741C761.65 419.862 761.94 420.063 762.166 420.327C762.393 420.59 762.548 420.907 762.618 421.247C762.688 421.587 762.671 421.94 762.567 422.271C762.463 422.602 762.276 422.902 762.025 423.141V423.141Z" fill="white"/>
<path d="M745.025 422.941C745.025 422.941 739.525 422.541 739.525 424.141C739.459 425.368 739.224 426.58 738.825 427.741C738.825 427.741 741.925 425.741 743.525 424.941C745.125 424.141 745.725 423.341 745.025 422.941Z" fill="#FFC692"/>
<path d="M120.625 460.341C120.625 460.341 101.625 461.341 100.625 460.341C99.6245 459.341 102.125 421.541 112.425 419.441C122.725 417.341 120.625 460.341 120.625 460.341Z" fill="#2EB5DA"/>
<path d="M470.625 325.341H460.625V708.341H470.625V325.341Z" fill="#0000F0"/>
<path opacity="0.58" d="M565.425 368.041H494.325V409.341H565.425V368.041Z" fill="url(#paint8_linear_60_8498)"/>
<path d="M563.725 366.341H492.625V407.641H563.725V366.341Z" fill="url(#paint9_linear_60_8498)"/>
<path opacity="0.58" d="M571.125 543.341C575.267 543.341 578.625 539.983 578.625 535.841C578.625 531.699 575.267 528.341 571.125 528.341C566.982 528.341 563.625 531.699 563.625 535.841C563.625 539.983 566.982 543.341 571.125 543.341Z" fill="url(#paint10_linear_60_8498)"/>
<path d="M570.125 540.341C574.267 540.341 577.625 536.983 577.625 532.841C577.625 528.699 574.267 525.341 570.125 525.341C565.982 525.341 562.625 528.699 562.625 532.841C562.625 536.983 565.982 540.341 570.125 540.341Z" fill="#FFBA12"/>
<path d="M492.625 381.141L529.125 366.341H492.625L492.825 380.141L492.625 381.141Z" fill="white"/>
<path d="M649.525 392.341C649.525 392.341 635.224 398.941 635.224 410.941C635.224 423.041 638.525 427.441 636.325 432.841C634.125 438.241 630.825 440.541 630.825 446.041C630.825 451.541 640.724 463.641 640.724 463.641C644.106 459.166 647.053 454.377 649.525 449.341C653.925 440.541 655.024 439.441 653.924 427.441C652.824 415.341 647.925 398.341 653.625 393.141C659.425 387.941 659.424 386.841 659.424 386.841L649.525 392.341Z" fill="#180940"/>
<path d="M686.625 359.441C688.025 360.793 689.057 362.479 689.625 364.341C689.625 364.341 673.725 373.641 669.325 374.741C664.925 375.841 662.725 373.141 662.225 375.541C661.725 378.041 663.325 382.441 665.825 382.441C665.825 382.441 663.925 391.241 657.325 392.341C650.725 393.441 649.625 392.341 649.625 392.341C649.625 392.341 647.925 357.941 668.825 353.741C672.031 353.125 675.342 353.324 678.452 354.32C681.562 355.316 684.372 357.077 686.625 359.441V359.441Z" fill="#180940"/>
</g>
<defs>
<linearGradient id="paint0_linear_60_8498" x1="468.625" y1="107.171" x2="1416.62" y2="107.171" gradientUnits="userSpaceOnUse">
<stop stop-color="#B564FF"/>
<stop offset="1" stop-color="#72AEFF"/>
</linearGradient>
<linearGradient id="paint1_linear_60_8498" x1="468.567" y1="127.341" x2="1049.62" y2="127.341" gradientUnits="userSpaceOnUse">
<stop stop-color="#B564FF"/>
<stop offset="1" stop-color="#72AEFF"/>
</linearGradient>
<linearGradient id="paint2_linear_60_8498" x1="467.625" y1="690.842" x2="1728.62" y2="690.842" gradientUnits="userSpaceOnUse">
<stop stop-color="#B564FF"/>
<stop offset="1" stop-color="#72AEFF"/>
</linearGradient>
<linearGradient id="paint3_linear_60_8498" x1="487.625" y1="1060.81" x2="1710.62" y2="1060.81" gradientUnits="userSpaceOnUse">
<stop stop-color="#B564FF"/>
<stop offset="0.3" stop-color="#B564FF"/>
<stop offset="1" stop-color="#72AEFF"/>
</linearGradient>
<linearGradient id="paint4_linear_60_8498" x1="588.224" y1="494.741" x2="1601.56" y2="494.741" gradientUnits="userSpaceOnUse">
<stop stop-color="#B564FF"/>
<stop offset="1" stop-color="#72AEFF"/>
</linearGradient>
<linearGradient id="paint5_linear_60_8498" x1="642.015" y1="472.057" x2="642.015" y2="490.826" gradientUnits="userSpaceOnUse">
<stop stop-color="#EA278B"/>
<stop offset="0.997" stop-color="#DB57B5"/>
</linearGradient>
<linearGradient id="paint6_linear_60_8498" x1="744.109" y1="701.042" x2="695.677" y2="701.042" gradientUnits="userSpaceOnUse">
<stop offset="0.356" stop-color="#31E0FD"/>
<stop offset="1" stop-color="#706AFB"/>
</linearGradient>
<linearGradient id="paint7_linear_60_8498" x1="590.05" y1="673.441" x2="562.669" y2="673.441" gradientUnits="userSpaceOnUse">
<stop offset="0.356" stop-color="#31E0FD"/>
<stop offset="1" stop-color="#706AFB"/>
</linearGradient>
<linearGradient id="paint8_linear_60_8498" x1="494.253" y1="388.65" x2="565.425" y2="388.65" gradientUnits="userSpaceOnUse">
<stop stop-color="#FE9533"/>
<stop offset="1" stop-color="#EA404F"/>
</linearGradient>
<linearGradient id="paint9_linear_60_8498" x1="556.33" y1="415.116" x2="533.541" y2="347.614" gradientUnits="userSpaceOnUse">
<stop stop-color="#CCD8CF"/>
<stop offset="0.657" stop-color="#FFF5E0"/>
</linearGradient>
<linearGradient id="paint10_linear_60_8498" x1="563.625" y1="535.841" x2="578.625" y2="535.841" gradientUnits="userSpaceOnUse">
<stop stop-color="#FC3832"/>
<stop offset="1" stop-color="#DC312B"/>
</linearGradient>
<clipPath id="clip0_60_8498">
<rect width="1600" height="960" fill="white"/>
</clipPath>
</defs>
</svg>
