<svg width="44" height="44" viewBox="0 0 44 44" fill="none" xmlns="http://www.w3.org/2000/svg">
<path fill-rule="evenodd" clip-rule="evenodd" d="M12.5714 39.6C12.5714 39.0165 12.737 38.4569 13.0317 38.0444C13.3264 37.6318 13.7261 37.4 14.1429 37.4H42.4286C42.8453 37.4 43.245 37.6318 43.5397 38.0444C43.8344 38.4569 44 39.0165 44 39.6C44 40.1835 43.8344 40.7431 43.5397 41.1556C43.245 41.5682 42.8453 41.8 42.4286 41.8H14.1429C13.7261 41.8 13.3264 41.5682 13.0317 41.1556C12.737 40.7431 12.5714 40.1835 12.5714 39.6ZM12.5714 22C12.5714 21.4165 12.737 20.8569 13.0317 20.4444C13.3264 20.0318 13.7261 19.8 14.1429 19.8H42.4286C42.8453 19.8 43.245 20.0318 43.5397 20.4444C43.8344 20.8569 44 21.4165 44 22C44 22.5835 43.8344 23.1431 43.5397 23.5556C43.245 23.9682 42.8453 24.2 42.4286 24.2H14.1429C13.7261 24.2 13.3264 23.9682 13.0317 23.5556C12.737 23.1431 12.5714 22.5835 12.5714 22ZM12.5714 4.4C12.5714 3.81652 12.737 3.25695 13.0317 2.84437C13.3264 2.43179 13.7261 2.2 14.1429 2.2H42.4286C42.8453 2.2 43.245 2.43179 43.5397 2.84437C43.8344 3.25695 44 3.81652 44 4.4C44 4.98348 43.8344 5.54305 43.5397 5.95563C43.245 6.36821 42.8453 6.6 42.4286 6.6H14.1429C13.7261 6.6 13.3264 6.36821 13.0317 5.95563C12.737 5.54305 12.5714 4.98348 12.5714 4.4ZM3.14286 8.8C3.97639 8.8 4.77579 8.33643 5.36519 7.51127C5.95459 6.68611 6.28571 5.56695 6.28571 4.4C6.28571 3.23305 5.95459 2.11389 5.36519 1.28873C4.77579 0.46357 3.97639 0 3.14286 0C2.30932 0 1.50992 0.46357 0.920521 1.28873C0.331121 2.11389 0 3.23305 0 4.4C0 5.56695 0.331121 6.68611 0.920521 7.51127C1.50992 8.33643 2.30932 8.8 3.14286 8.8ZM3.14286 26.4C3.97639 26.4 4.77579 25.9364 5.36519 25.1113C5.95459 24.2861 6.28571 23.167 6.28571 22C6.28571 20.833 5.95459 19.7139 5.36519 18.8887C4.77579 18.0636 3.97639 17.6 3.14286 17.6C2.30932 17.6 1.50992 18.0636 0.920521 18.8887C0.331121 19.7139 0 20.833 0 22C0 23.167 0.331121 24.2861 0.920521 25.1113C1.50992 25.9364 2.30932 26.4 3.14286 26.4ZM3.14286 44C3.97639 44 4.77579 43.5364 5.36519 42.7113C5.95459 41.8861 6.28571 40.767 6.28571 39.6C6.28571 38.433 5.95459 37.3139 5.36519 36.4887C4.77579 35.6636 3.97639 35.2 3.14286 35.2C2.30932 35.2 1.50992 35.6636 0.920521 36.4887C0.331121 37.3139 0 38.433 0 39.6C0 40.767 0.331121 41.8861 0.920521 42.7113C1.50992 43.5364 2.30932 44 3.14286 44Z" fill="black"/>
</svg>
