<svg width="22" height="22" viewBox="0 0 22 22" fill="none" xmlns="http://www.w3.org/2000/svg">
<path d="M21.5773 11.0468C21.577 16.3796 17.5893 20.8698 12.2939 21.5V14.3753H14.1655C14.4278 14.3767 14.6486 14.179 14.6759 13.918L14.8779 12.3761C14.892 12.2297 14.8459 12.0838 14.7503 11.972C14.6525 11.8563 14.5084 11.7901 14.3569 11.7912H12.2939V9.98344C12.2939 9.39615 12.77 8.92005 13.3573 8.92005H14.4207C14.5579 8.92291 14.6905 8.8704 14.7885 8.77436C14.8865 8.67832 14.9418 8.54686 14.9417 8.40962V6.69755C14.9383 6.43118 14.7383 6.20844 14.4739 6.17649C14.4739 6.17649 13.7082 6.11269 12.7937 6.11269C10.518 6.11269 9.26322 7.4632 9.26322 9.91964V11.7912H7.13644C6.84866 11.7912 6.61537 12.0245 6.61537 12.3123V13.8542C6.61537 14.142 6.84866 14.3753 7.13644 14.3753H9.19942V21.4149C3.70324 20.4405 -0.0797372 15.3494 0.573206 9.8058C1.22615 4.26222 6.08849 0.18939 11.6607 0.518624C17.2328 0.847858 21.5817 5.46494 21.5773 11.0468Z" fill="#2474E1"/>
</svg>
