<svg width="22" height="22" viewBox="0 0 22 22" fill="none" xmlns="http://www.w3.org/2000/svg">
<path d="M5.22247 8.35403C5.1387 8.53253 5.0654 8.73204 5.00258 8.92104L1.62051 6.28552C3.33772 2.85202 6.87685 0.5 10.9709 0.5C13.798 0.5 16.1645 1.53951 17.9759 3.23001L15.0231 6.12803C14.2588 5.41403 12.9394 4.56351 10.9709 4.56351C8.41606 4.56351 6.21719 6.11753 5.22247 8.35403Z" fill="#EA4335"/>
<path d="M4.66738 11.0001C4.66738 11.7246 4.79303 12.4281 5.01292 13.0791L1.63085 15.7065L1.62038 15.7146C0.908361 14.2866 0.5 12.6906 0.5 11.0001C0.5 9.30958 0.908361 7.71359 1.62038 6.28558L5.00245 8.9211C4.79303 9.5721 4.66738 10.2756 4.66738 11.0001Z" fill="#FBBC05"/>
<path d="M10.9707 17.447C12.5308 17.447 13.7245 17.0165 14.604 16.397L17.9023 18.959C16.1747 20.5655 13.7978 21.5 10.9707 21.5C6.87658 21.5 3.34792 19.148 1.63071 15.7145V15.7064L1.62024 15.7145L1.63071 15.704V15.7064L5.01279 13.079C5.85045 15.62 8.20637 17.447 10.9707 17.447Z" fill="#34A853"/>
<path d="M10.9707 9.09961H20.8027C20.9493 9.75061 21.0226 10.3806 21.0226 11.2311C21.0226 14.4336 19.8813 17.1321 17.9023 18.9591L14.604 16.3971C15.9966 15.4206 16.6249 13.9611 16.7401 12.9951H10.9707V9.09961Z" fill="#4285F4"/>
</svg>
