<svg width="22" height="22" viewBox="0 0 22 22" fill="none" xmlns="http://www.w3.org/2000/svg">
<mask id="mask0_107_3253" style="mask-type:alpha" maskUnits="userSpaceOnUse" x="0" y="0" width="22" height="22">
<path fill-rule="evenodd" clip-rule="evenodd" d="M0.500046 0.5H21.5V21.4991H0.500046V0.5Z" fill="white"/>
</mask>
<g mask="url(#mask0_107_3253)">
<path fill-rule="evenodd" clip-rule="evenodd" d="M18.0125 16.846C18.0143 17.0776 17.9398 17.1442 17.7143 17.1389C17.074 17.1267 16.4337 17.117 15.7943 17.1425C15.4733 17.1556 15.3767 17.0723 15.3811 16.7382C15.4005 15.2988 15.3881 13.8585 15.3908 12.4184C15.3908 12.0237 15.3645 11.6325 15.2197 11.2605C14.9741 10.6325 14.5505 10.2072 13.848 10.1457C13.1006 10.0799 12.5578 10.4202 12.1911 11.051C11.9508 11.4641 11.8955 11.9254 11.8964 12.3972C11.8999 13.8524 11.8885 15.3066 11.9051 16.7609C11.9096 17.0741 11.8139 17.1521 11.5139 17.1416C10.8745 17.1197 10.2342 17.125 9.59398 17.1399C9.34839 17.146 9.27375 17.0723 9.27375 16.8232C9.28173 13.8269 9.28076 10.8307 9.27559 7.83457C9.27559 7.61967 9.31944 7.5231 9.56144 7.52845C10.2447 7.54328 10.9289 7.54328 11.6121 7.52845C11.849 7.52407 11.9112 7.60994 11.9016 7.83106C11.8867 8.1898 11.8981 8.54933 11.8981 9.00192C12.9112 7.7494 14.1312 7.33812 15.5803 7.6302C16.9837 7.91342 17.9493 9.17656 17.9897 10.8685C18.037 12.8595 18.002 14.8532 18.0125 16.846M6.21974 6.41357C5.36973 6.41173 4.70487 5.7381 4.70671 4.88213C4.70838 4.0365 5.3935 3.34717 6.22843 3.34884C7.06441 3.35147 7.7433 4.04351 7.74066 4.88993C7.73882 5.74784 7.0723 6.41524 6.21974 6.41357M7.16014 17.1423C6.52151 17.1169 5.88042 17.1265 5.241 17.1388C5.01199 17.1433 4.90858 17.1011 4.90936 16.8345C4.91822 13.84 4.91726 10.8465 4.91024 7.8519C4.90936 7.61166 4.96734 7.52123 5.22337 7.52834C5.87691 7.54491 6.53203 7.54939 7.1847 7.52649C7.48546 7.51597 7.54072 7.62736 7.53905 7.89927C7.52765 9.3816 7.5337 10.8639 7.5337 12.3471C7.5337 13.8146 7.52502 15.2829 7.53993 16.7511C7.54344 17.0494 7.47493 17.1547 7.16014 17.1423M21.4552 4.0524C21.3956 3.57604 21.3877 3.08573 21.1246 2.65954C20.273 1.27808 19.0976 0.491215 17.4126 0.500074C13.1499 0.522002 8.88712 0.500074 4.62424 0.514985C3.98403 0.516652 3.32531 0.537702 2.74378 0.881533C1.32452 1.72181 0.491257 2.89627 0.500116 4.61805C0.520202 8.89497 0.500116 13.1717 0.514062 17.4494C0.516693 18.052 0.525552 18.6826 0.841227 19.2256C1.58678 20.5098 2.56924 21.4632 4.18305 21.457C4.22953 21.457 4.26558 21.4789 4.30418 21.4991H17.746C17.8206 21.4324 17.9118 21.4657 17.996 21.4552C18.4792 21.3947 18.9784 21.3921 19.4072 21.1149C20.6062 20.3395 21.4877 19.3633 21.4606 17.8204C21.4606 17.7932 21.4798 17.7688 21.5001 17.746V4.30413C21.4403 4.22782 21.4658 4.13739 21.4552 4.0524" fill="#0B66C2"/>
</g>
</svg>
